<?xml version="1.0" encoding="utf-8" standalone="no"?>
<!DOCTYPE svg PUBLIC "-//W3C//DTD SVG 1.1//EN"
  "http://www.w3.org/Graphics/SVG/1.1/DTD/svg11.dtd">
<svg xmlns:xlink="http://www.w3.org/1999/xlink" width="432pt" height="576pt" viewBox="0 0 432 576" xmlns="http://www.w3.org/2000/svg" version="1.1">
 <metadata>
  <rdf:RDF xmlns:dc="http://purl.org/dc/elements/1.1/" xmlns:cc="http://creativecommons.org/ns#" xmlns:rdf="http://www.w3.org/1999/02/22-rdf-syntax-ns#">
   <cc:Work>
    <dc:type rdf:resource="http://purl.org/dc/dcmitype/StillImage"/>
    <dc:date>2024-09-22T20:51:24.394551</dc:date>
    <dc:format>image/svg+xml</dc:format>
    <dc:creator>
     <cc:Agent>
      <dc:title>Matplotlib v3.9.0, https://matplotlib.org/</dc:title>
     </cc:Agent>
    </dc:creator>
   </cc:Work>
  </rdf:RDF>
 </metadata>
 <defs>
  <style type="text/css">*{stroke-linejoin: round; stroke-linecap: butt}</style>
 </defs>
 <g id="figure_1">
  <g id="patch_1">
   <path d="M 0 576 
L 432 576 
L 432 0 
L 0 0 
z
" style="fill: #ffffff"/>
  </g>
  <g id="axes_1">
   <g id="patch_2">
    <path d="M 54 512.64 
L 388.8 512.64 
L 388.8 69.12 
L 54 69.12 
z
" style="fill: #ffffff"/>
   </g>
   <g id="patch_3">
    <path d="M 70.74 512.64 
L 104.22 512.64 
L 104.22 498.511305 
L 70.74 498.511305 
z
" clip-path="url(#pc61beff77d)" style="fill: #1f77b4"/>
   </g>
   <g id="patch_4">
    <path d="M 137.7 512.64 
L 171.18 512.64 
L 171.18 425.399405 
L 137.7 425.399405 
z
" clip-path="url(#pc61beff77d)" style="fill: #1f77b4"/>
   </g>
   <g id="patch_5">
    <path d="M 204.66 512.64 
L 238.14 512.64 
L 238.14 507.616499 
L 204.66 507.616499 
z
" clip-path="url(#pc61beff77d)" style="fill: #1f77b4"/>
   </g>
   <g id="patch_6">
    <path d="M 271.62 512.64 
L 305.1 512.64 
L 305.1 510.792755 
L 271.62 510.792755 
z
" clip-path="url(#pc61beff77d)" style="fill: #1f77b4"/>
   </g>
   <g id="patch_7">
    <path d="M 338.58 512.64 
L 372.06 512.64 
L 372.06 511.211832 
L 338.58 511.211832 
z
" clip-path="url(#pc61beff77d)" style="fill: #1f77b4"/>
   </g>
   <g id="patch_8">
    <path d="M 405.54 512.64 
L 439.02 512.64 
L 439.02 499.940373 
L 405.54 499.940373 
z
" clip-path="url(#pc61beff77d)" style="fill: #1f77b4"/>
   </g>
   <g id="patch_9">
    <path d="M 472.5 512.64 
L 505.98 512.64 
L 505.98 496.113439 
L 472.5 496.113439 
z
" clip-path="url(#pc61beff77d)" style="fill: #1f77b4"/>
   </g>
   <g id="patch_10">
    <path d="M 539.46 512.64 
L 572.94 512.64 
L 572.94 408.556445 
L 539.46 408.556445 
z
" clip-path="url(#pc61beff77d)" style="fill: #1f77b4"/>
   </g>
   <g id="patch_11">
    <path d="M 606.42 512.64 
L 639.9 512.64 
L 639.9 507.670954 
L 606.42 507.670954 
z
" clip-path="url(#pc61beff77d)" style="fill: #1f77b4"/>
   </g>
   <g id="patch_12">
    <path d="M 673.38 512.64 
L 706.86 512.64 
L 706.86 510.778789 
L 673.38 510.778789 
z
" clip-path="url(#pc61beff77d)" style="fill: #1f77b4"/>
   </g>
   <g id="patch_13">
    <path d="M 740.34 512.64 
L 773.82 512.64 
L 773.82 511.199543 
L 740.34 511.199543 
z
" clip-path="url(#pc61beff77d)" style="fill: #1f77b4"/>
   </g>
   <g id="patch_14">
    <path d="M 807.3 512.64 
L 840.78 512.64 
L 840.78 499.852599 
L 807.3 499.852599 
z
" clip-path="url(#pc61beff77d)" style="fill: #1f77b4"/>
   </g>
   <g id="patch_15">
    <path d="M 874.26 512.64 
L 907.74 512.64 
L 907.74 506.274454 
L 874.26 506.274454 
z
" clip-path="url(#pc61beff77d)" style="fill: #1f77b4"/>
   </g>
   <g id="patch_16">
    <path d="M 941.22 512.64 
L 974.7 512.64 
L 974.7 470.000499 
L 941.22 470.000499 
z
" clip-path="url(#pc61beff77d)" style="fill: #1f77b4"/>
   </g>
   <g id="patch_17">
    <path d="M 1008.18 512.64 
L 1041.66 512.64 
L 1041.66 507.740594 
L 1008.18 507.740594 
z
" clip-path="url(#pc61beff77d)" style="fill: #1f77b4"/>
   </g>
   <g id="patch_18">
    <path d="M 1075.14 512.64 
L 1108.62 512.64 
L 1108.62 510.813732 
L 1075.14 510.813732 
z
" clip-path="url(#pc61beff77d)" style="fill: #1f77b4"/>
   </g>
   <g id="patch_19">
    <path d="M 1142.1 512.64 
L 1175.58 512.64 
L 1175.58 511.078556 
L 1142.1 511.078556 
z
" clip-path="url(#pc61beff77d)" style="fill: #1f77b4"/>
   </g>
   <g id="patch_20">
    <path d="M 1209.06 512.64 
L 1242.54 512.64 
L 1242.54 500.28114 
L 1209.06 500.28114 
z
" clip-path="url(#pc61beff77d)" style="fill: #1f77b4"/>
   </g>
   <g id="patch_21">
    <path d="M 1276.02 512.64 
L 1309.5 512.64 
L 1309.5 504.131434 
L 1276.02 504.131434 
z
" clip-path="url(#pc61beff77d)" style="fill: #1f77b4"/>
   </g>
   <g id="patch_22">
    <path d="M 1342.98 512.64 
L 1376.46 512.64 
L 1376.46 447.662634 
L 1342.98 447.662634 
z
" clip-path="url(#pc61beff77d)" style="fill: #1f77b4"/>
   </g>
   <g id="patch_23">
    <path d="M 1409.94 512.64 
L 1443.42 512.64 
L 1443.42 507.507889 
L 1409.94 507.507889 
z
" clip-path="url(#pc61beff77d)" style="fill: #1f77b4"/>
   </g>
   <g id="patch_24">
    <path d="M 1476.9 512.64 
L 1510.38 512.64 
L 1510.38 510.668214 
L 1476.9 510.668214 
z
" clip-path="url(#pc61beff77d)" style="fill: #1f77b4"/>
   </g>
   <g id="patch_25">
    <path d="M 1543.86 512.64 
L 1577.34 512.64 
L 1577.34 511.134759 
L 1543.86 511.134759 
z
" clip-path="url(#pc61beff77d)" style="fill: #1f77b4"/>
   </g>
   <g id="patch_26">
    <path d="M 1610.82 512.64 
L 1644.3 512.64 
L 1644.3 499.624821 
L 1610.82 499.624821 
z
" clip-path="url(#pc61beff77d)" style="fill: #1f77b4"/>
   </g>
   <g id="patch_27">
    <path d="M 1677.78 512.64 
L 1711.26 512.64 
L 1711.26 506.227521 
L 1677.78 506.227521 
z
" clip-path="url(#pc61beff77d)" style="fill: #1f77b4"/>
   </g>
   <g id="patch_28">
    <path d="M 1744.74 512.64 
L 1778.22 512.64 
L 1778.22 450.625071 
L 1744.74 450.625071 
z
" clip-path="url(#pc61beff77d)" style="fill: #1f77b4"/>
   </g>
   <g id="patch_29">
    <path d="M 1811.7 512.64 
L 1845.18 512.64 
L 1845.18 507.387484 
L 1811.7 507.387484 
z
" clip-path="url(#pc61beff77d)" style="fill: #1f77b4"/>
   </g>
   <g id="patch_30">
    <path d="M 1878.66 512.64 
L 1912.14 512.64 
L 1912.14 510.700729 
L 1878.66 510.700729 
z
" clip-path="url(#pc61beff77d)" style="fill: #1f77b4"/>
   </g>
   <g id="patch_31">
    <path d="M 1945.62 512.64 
L 1979.1 512.64 
L 1979.1 511.131686 
L 1945.62 511.131686 
z
" clip-path="url(#pc61beff77d)" style="fill: #1f77b4"/>
   </g>
   <g id="patch_32">
    <path d="M 2012.58 512.64 
L 2046.06 512.64 
L 2046.06 499.689817 
L 2012.58 499.689817 
z
" clip-path="url(#pc61beff77d)" style="fill: #1f77b4"/>
   </g>
   <g id="patch_33">
    <path d="M 2079.54 512.64 
L 2113.02 512.64 
L 2113.02 511.248542 
L 2079.54 511.248542 
z
" clip-path="url(#pc61beff77d)" style="fill: #1f77b4"/>
   </g>
   <g id="patch_34">
    <path d="M 2146.5 512.64 
L 2179.98 512.64 
L 2179.98 512.623738 
L 2146.5 512.623738 
z
" clip-path="url(#pc61beff77d)" style="fill: #1f77b4"/>
   </g>
   <g id="patch_35">
    <path d="M 2213.46 512.64 
L 2246.94 512.64 
L 2246.94 508.945326 
L 2213.46 508.945326 
z
" clip-path="url(#pc61beff77d)" style="fill: #1f77b4"/>
   </g>
   <g id="patch_36">
    <path d="M 2280.42 512.64 
L 2313.9 512.64 
L 2313.9 512.53779 
L 2280.42 512.53779 
z
" clip-path="url(#pc61beff77d)" style="fill: #1f77b4"/>
   </g>
   <g id="patch_37">
    <path d="M 2347.38 512.64 
L 2380.86 512.64 
L 2380.86 450.537138 
L 2347.38 450.537138 
z
" clip-path="url(#pc61beff77d)" style="fill: #1f77b4"/>
   </g>
   <g id="patch_38">
    <path d="M 2414.34 512.64 
L 2447.82 512.64 
L 2447.82 90.24 
L 2414.34 90.24 
z
" clip-path="url(#pc61beff77d)" style="fill: #1f77b4"/>
   </g>
   <g id="patch_39">
    <path d="M 70.74 512.64 
L 104.22 512.64 
L 104.22 507.616499 
L 70.74 507.616499 
z
" clip-path="url(#pc61beff77d)" style="fill: #1f77b4"/>
   </g>
   <g id="patch_40">
    <path d="M 137.7 512.64 
L 171.18 512.64 
L 171.18 507.670954 
L 137.7 507.670954 
z
" clip-path="url(#pc61beff77d)" style="fill: #1f77b4"/>
   </g>
   <g id="patch_41">
    <path d="M 204.66 512.64 
L 238.14 512.64 
L 238.14 507.740594 
L 204.66 507.740594 
z
" clip-path="url(#pc61beff77d)" style="fill: #1f77b4"/>
   </g>
   <g id="patch_42">
    <path d="M 271.62 512.64 
L 305.1 512.64 
L 305.1 507.507889 
L 271.62 507.507889 
z
" clip-path="url(#pc61beff77d)" style="fill: #1f77b4"/>
   </g>
   <g id="patch_43">
    <path d="M 338.58 512.64 
L 372.06 512.64 
L 372.06 507.387484 
L 338.58 507.387484 
z
" clip-path="url(#pc61beff77d)" style="fill: #1f77b4"/>
   </g>
   <g id="matplotlib.axis_1">
    <g id="xtick_1">
     <g id="line2d_1">
      <defs>
       <path id="m67dff440c5" d="M 0 0 
L 0 3.5 
" style="stroke: #000000; stroke-width: 0.8"/>
      </defs>
      <g>
       <use xlink:href="#m67dff440c5" x="87.48" y="512.64" style="stroke: #000000; stroke-width: 0.8"/>
      </g>
     </g>
     <g id="text_1">
      <!-- 0000 - 0600 -->
      <g transform="translate(79.664597 579.432329) rotate(-70) scale(0.1 -0.1)">
       <defs>
        <path id="DejaVuSans-30" d="M 2034 4250 
Q 1547 4250 1301 3770 
Q 1056 3291 1056 2328 
Q 1056 1369 1301 889 
Q 1547 409 2034 409 
Q 2525 409 2770 889 
Q 3016 1369 3016 2328 
Q 3016 3291 2770 3770 
Q 2525 4250 2034 4250 
z
M 2034 4750 
Q 2819 4750 3233 4129 
Q 3647 3509 3647 2328 
Q 3647 1150 3233 529 
Q 2819 -91 2034 -91 
Q 1250 -91 836 529 
Q 422 1150 422 2328 
Q 422 3509 836 4129 
Q 1250 4750 2034 4750 
z
" transform="scale(0.015625)"/>
        <path id="DejaVuSans-20" transform="scale(0.015625)"/>
        <path id="DejaVuSans-2d" d="M 313 2009 
L 1997 2009 
L 1997 1497 
L 313 1497 
L 313 2009 
z
" transform="scale(0.015625)"/>
        <path id="DejaVuSans-36" d="M 2113 2584 
Q 1688 2584 1439 2293 
Q 1191 2003 1191 1497 
Q 1191 994 1439 701 
Q 1688 409 2113 409 
Q 2538 409 2786 701 
Q 3034 994 3034 1497 
Q 3034 2003 2786 2293 
Q 2538 2584 2113 2584 
z
M 3366 4563 
L 3366 3988 
Q 3128 4100 2886 4159 
Q 2644 4219 2406 4219 
Q 1781 4219 1451 3797 
Q 1122 3375 1075 2522 
Q 1259 2794 1537 2939 
Q 1816 3084 2150 3084 
Q 2853 3084 3261 2657 
Q 3669 2231 3669 1497 
Q 3669 778 3244 343 
Q 2819 -91 2113 -91 
Q 1303 -91 875 529 
Q 447 1150 447 2328 
Q 447 3434 972 4092 
Q 1497 4750 2381 4750 
Q 2619 4750 2861 4703 
Q 3103 4656 3366 4563 
z
" transform="scale(0.015625)"/>
       </defs>
       <use xlink:href="#DejaVuSans-30"/>
       <use xlink:href="#DejaVuSans-30" x="63.623047"/>
       <use xlink:href="#DejaVuSans-30" x="127.246094"/>
       <use xlink:href="#DejaVuSans-30" x="190.869141"/>
       <use xlink:href="#DejaVuSans-20" x="254.492188"/>
       <use xlink:href="#DejaVuSans-2d" x="286.279297"/>
       <use xlink:href="#DejaVuSans-20" x="322.363281"/>
       <use xlink:href="#DejaVuSans-30" x="354.150391"/>
       <use xlink:href="#DejaVuSans-36" x="417.773438"/>
       <use xlink:href="#DejaVuSans-30" x="481.396484"/>
       <use xlink:href="#DejaVuSans-30" x="545.019531"/>
      </g>
     </g>
    </g>
    <g id="xtick_2">
     <g id="line2d_2">
      <g>
       <use xlink:href="#m67dff440c5" x="154.44" y="512.64" style="stroke: #000000; stroke-width: 0.8"/>
      </g>
     </g>
     <g id="text_2">
      <!-- 0600 - 1300 -->
      <g transform="translate(146.624597 579.432329) rotate(-70) scale(0.1 -0.1)">
       <defs>
        <path id="DejaVuSans-31" d="M 794 531 
L 1825 531 
L 1825 4091 
L 703 3866 
L 703 4441 
L 1819 4666 
L 2450 4666 
L 2450 531 
L 3481 531 
L 3481 0 
L 794 0 
L 794 531 
z
" transform="scale(0.015625)"/>
        <path id="DejaVuSans-33" d="M 2597 2516 
Q 3050 2419 3304 2112 
Q 3559 1806 3559 1356 
Q 3559 666 3084 287 
Q 2609 -91 1734 -91 
Q 1441 -91 1130 -33 
Q 819 25 488 141 
L 488 750 
Q 750 597 1062 519 
Q 1375 441 1716 441 
Q 2309 441 2620 675 
Q 2931 909 2931 1356 
Q 2931 1769 2642 2001 
Q 2353 2234 1838 2234 
L 1294 2234 
L 1294 2753 
L 1863 2753 
Q 2328 2753 2575 2939 
Q 2822 3125 2822 3475 
Q 2822 3834 2567 4026 
Q 2313 4219 1838 4219 
Q 1578 4219 1281 4162 
Q 984 4106 628 3988 
L 628 4550 
Q 988 4650 1302 4700 
Q 1616 4750 1894 4750 
Q 2613 4750 3031 4423 
Q 3450 4097 3450 3541 
Q 3450 3153 3228 2886 
Q 3006 2619 2597 2516 
z
" transform="scale(0.015625)"/>
       </defs>
       <use xlink:href="#DejaVuSans-30"/>
       <use xlink:href="#DejaVuSans-36" x="63.623047"/>
       <use xlink:href="#DejaVuSans-30" x="127.246094"/>
       <use xlink:href="#DejaVuSans-30" x="190.869141"/>
       <use xlink:href="#DejaVuSans-20" x="254.492188"/>
       <use xlink:href="#DejaVuSans-2d" x="286.279297"/>
       <use xlink:href="#DejaVuSans-20" x="322.363281"/>
       <use xlink:href="#DejaVuSans-31" x="354.150391"/>
       <use xlink:href="#DejaVuSans-33" x="417.773438"/>
       <use xlink:href="#DejaVuSans-30" x="481.396484"/>
       <use xlink:href="#DejaVuSans-30" x="545.019531"/>
      </g>
     </g>
    </g>
    <g id="xtick_3">
     <g id="line2d_3">
      <g>
       <use xlink:href="#m67dff440c5" x="221.4" y="512.64" style="stroke: #000000; stroke-width: 0.8"/>
      </g>
     </g>
     <g id="text_3">
      <!-- 1300 - 1600 -->
      <g transform="translate(213.584597 579.432329) rotate(-70) scale(0.1 -0.1)">
       <use xlink:href="#DejaVuSans-31"/>
       <use xlink:href="#DejaVuSans-33" x="63.623047"/>
       <use xlink:href="#DejaVuSans-30" x="127.246094"/>
       <use xlink:href="#DejaVuSans-30" x="190.869141"/>
       <use xlink:href="#DejaVuSans-20" x="254.492188"/>
       <use xlink:href="#DejaVuSans-2d" x="286.279297"/>
       <use xlink:href="#DejaVuSans-20" x="322.363281"/>
       <use xlink:href="#DejaVuSans-31" x="354.150391"/>
       <use xlink:href="#DejaVuSans-36" x="417.773438"/>
       <use xlink:href="#DejaVuSans-30" x="481.396484"/>
       <use xlink:href="#DejaVuSans-30" x="545.019531"/>
      </g>
     </g>
    </g>
    <g id="xtick_4">
     <g id="line2d_4">
      <g>
       <use xlink:href="#m67dff440c5" x="288.36" y="512.64" style="stroke: #000000; stroke-width: 0.8"/>
      </g>
     </g>
     <g id="text_4">
      <!-- 1600 - 2000 -->
      <g transform="translate(280.544597 579.432329) rotate(-70) scale(0.1 -0.1)">
       <defs>
        <path id="DejaVuSans-32" d="M 1228 531 
L 3431 531 
L 3431 0 
L 469 0 
L 469 531 
Q 828 903 1448 1529 
Q 2069 2156 2228 2338 
Q 2531 2678 2651 2914 
Q 2772 3150 2772 3378 
Q 2772 3750 2511 3984 
Q 2250 4219 1831 4219 
Q 1534 4219 1204 4116 
Q 875 4013 500 3803 
L 500 4441 
Q 881 4594 1212 4672 
Q 1544 4750 1819 4750 
Q 2544 4750 2975 4387 
Q 3406 4025 3406 3419 
Q 3406 3131 3298 2873 
Q 3191 2616 2906 2266 
Q 2828 2175 2409 1742 
Q 1991 1309 1228 531 
z
" transform="scale(0.015625)"/>
       </defs>
       <use xlink:href="#DejaVuSans-31"/>
       <use xlink:href="#DejaVuSans-36" x="63.623047"/>
       <use xlink:href="#DejaVuSans-30" x="127.246094"/>
       <use xlink:href="#DejaVuSans-30" x="190.869141"/>
       <use xlink:href="#DejaVuSans-20" x="254.492188"/>
       <use xlink:href="#DejaVuSans-2d" x="286.279297"/>
       <use xlink:href="#DejaVuSans-20" x="322.363281"/>
       <use xlink:href="#DejaVuSans-32" x="354.150391"/>
       <use xlink:href="#DejaVuSans-30" x="417.773438"/>
       <use xlink:href="#DejaVuSans-30" x="481.396484"/>
       <use xlink:href="#DejaVuSans-30" x="545.019531"/>
      </g>
     </g>
    </g>
    <g id="xtick_5">
     <g id="line2d_5">
      <g>
       <use xlink:href="#m67dff440c5" x="355.32" y="512.64" style="stroke: #000000; stroke-width: 0.8"/>
      </g>
     </g>
     <g id="text_5">
      <!-- 2000 - 2400 -->
      <g transform="translate(347.504597 579.432329) rotate(-70) scale(0.1 -0.1)">
       <defs>
        <path id="DejaVuSans-34" d="M 2419 4116 
L 825 1625 
L 2419 1625 
L 2419 4116 
z
M 2253 4666 
L 3047 4666 
L 3047 1625 
L 3713 1625 
L 3713 1100 
L 3047 1100 
L 3047 0 
L 2419 0 
L 2419 1100 
L 313 1100 
L 313 1709 
L 2253 4666 
z
" transform="scale(0.015625)"/>
       </defs>
       <use xlink:href="#DejaVuSans-32"/>
       <use xlink:href="#DejaVuSans-30" x="63.623047"/>
       <use xlink:href="#DejaVuSans-30" x="127.246094"/>
       <use xlink:href="#DejaVuSans-30" x="190.869141"/>
       <use xlink:href="#DejaVuSans-20" x="254.492188"/>
       <use xlink:href="#DejaVuSans-2d" x="286.279297"/>
       <use xlink:href="#DejaVuSans-20" x="322.363281"/>
       <use xlink:href="#DejaVuSans-32" x="354.150391"/>
       <use xlink:href="#DejaVuSans-34" x="417.773438"/>
       <use xlink:href="#DejaVuSans-30" x="481.396484"/>
       <use xlink:href="#DejaVuSans-30" x="545.019531"/>
      </g>
     </g>
    </g>
   </g>
   <g id="matplotlib.axis_2">
    <g id="ytick_1">
     <g id="line2d_6">
      <path d="M 54 512.64 
L 388.8 512.64 
" clip-path="url(#pc61beff77d)" style="fill: none; stroke-dasharray: 0.5,0.825; stroke-dashoffset: 0; stroke: #000000; stroke-width: 0.5"/>
     </g>
     <g id="line2d_7">
      <defs>
       <path id="m58663804f4" d="M 0 0 
L -3.5 0 
" style="stroke: #000000; stroke-width: 0.8"/>
      </defs>
      <g>
       <use xlink:href="#m58663804f4" x="54" y="512.64" style="stroke: #000000; stroke-width: 0.8"/>
      </g>
     </g>
     <g id="text_6">
      <!-- 0 -->
      <g transform="translate(40.6375 516.439219) scale(0.1 -0.1)">
       <use xlink:href="#DejaVuSans-30"/>
      </g>
     </g>
    </g>
    <g id="ytick_2">
     <g id="line2d_8">
      <path d="M 54 450.027551 
L 388.8 450.027551 
" clip-path="url(#pc61beff77d)" style="fill: none; stroke-dasharray: 0.5,0.825; stroke-dashoffset: 0; stroke: #000000; stroke-width: 0.5"/>
     </g>
     <g id="line2d_9">
      <g>
       <use xlink:href="#m58663804f4" x="54" y="450.027551" style="stroke: #000000; stroke-width: 0.8"/>
      </g>
     </g>
     <g id="text_7">
      <!-- 2000 -->
      <g transform="translate(21.55 453.82677) scale(0.1 -0.1)">
       <use xlink:href="#DejaVuSans-32"/>
       <use xlink:href="#DejaVuSans-30" x="63.623047"/>
       <use xlink:href="#DejaVuSans-30" x="127.246094"/>
       <use xlink:href="#DejaVuSans-30" x="190.869141"/>
      </g>
     </g>
    </g>
    <g id="ytick_3">
     <g id="line2d_10">
      <path d="M 54 387.415103 
L 388.8 387.415103 
" clip-path="url(#pc61beff77d)" style="fill: none; stroke-dasharray: 0.5,0.825; stroke-dashoffset: 0; stroke: #000000; stroke-width: 0.5"/>
     </g>
     <g id="line2d_11">
      <g>
       <use xlink:href="#m58663804f4" x="54" y="387.415103" style="stroke: #000000; stroke-width: 0.8"/>
      </g>
     </g>
     <g id="text_8">
      <!-- 4000 -->
      <g transform="translate(21.55 391.214321) scale(0.1 -0.1)">
       <use xlink:href="#DejaVuSans-34"/>
       <use xlink:href="#DejaVuSans-30" x="63.623047"/>
       <use xlink:href="#DejaVuSans-30" x="127.246094"/>
       <use xlink:href="#DejaVuSans-30" x="190.869141"/>
      </g>
     </g>
    </g>
    <g id="ytick_4">
     <g id="line2d_12">
      <path d="M 54 324.802654 
L 388.8 324.802654 
" clip-path="url(#pc61beff77d)" style="fill: none; stroke-dasharray: 0.5,0.825; stroke-dashoffset: 0; stroke: #000000; stroke-width: 0.5"/>
     </g>
     <g id="line2d_13">
      <g>
       <use xlink:href="#m58663804f4" x="54" y="324.802654" style="stroke: #000000; stroke-width: 0.8"/>
      </g>
     </g>
     <g id="text_9">
      <!-- 6000 -->
      <g transform="translate(21.55 328.601873) scale(0.1 -0.1)">
       <use xlink:href="#DejaVuSans-36"/>
       <use xlink:href="#DejaVuSans-30" x="63.623047"/>
       <use xlink:href="#DejaVuSans-30" x="127.246094"/>
       <use xlink:href="#DejaVuSans-30" x="190.869141"/>
      </g>
     </g>
    </g>
    <g id="ytick_5">
     <g id="line2d_14">
      <path d="M 54 262.190205 
L 388.8 262.190205 
" clip-path="url(#pc61beff77d)" style="fill: none; stroke-dasharray: 0.5,0.825; stroke-dashoffset: 0; stroke: #000000; stroke-width: 0.5"/>
     </g>
     <g id="line2d_15">
      <g>
       <use xlink:href="#m58663804f4" x="54" y="262.190205" style="stroke: #000000; stroke-width: 0.8"/>
      </g>
     </g>
     <g id="text_10">
      <!-- 8000 -->
      <g transform="translate(21.55 265.989424) scale(0.1 -0.1)">
       <defs>
        <path id="DejaVuSans-38" d="M 2034 2216 
Q 1584 2216 1326 1975 
Q 1069 1734 1069 1313 
Q 1069 891 1326 650 
Q 1584 409 2034 409 
Q 2484 409 2743 651 
Q 3003 894 3003 1313 
Q 3003 1734 2745 1975 
Q 2488 2216 2034 2216 
z
M 1403 2484 
Q 997 2584 770 2862 
Q 544 3141 544 3541 
Q 544 4100 942 4425 
Q 1341 4750 2034 4750 
Q 2731 4750 3128 4425 
Q 3525 4100 3525 3541 
Q 3525 3141 3298 2862 
Q 3072 2584 2669 2484 
Q 3125 2378 3379 2068 
Q 3634 1759 3634 1313 
Q 3634 634 3220 271 
Q 2806 -91 2034 -91 
Q 1263 -91 848 271 
Q 434 634 434 1313 
Q 434 1759 690 2068 
Q 947 2378 1403 2484 
z
M 1172 3481 
Q 1172 3119 1398 2916 
Q 1625 2713 2034 2713 
Q 2441 2713 2670 2916 
Q 2900 3119 2900 3481 
Q 2900 3844 2670 4047 
Q 2441 4250 2034 4250 
Q 1625 4250 1398 4047 
Q 1172 3844 1172 3481 
z
" transform="scale(0.015625)"/>
       </defs>
       <use xlink:href="#DejaVuSans-38"/>
       <use xlink:href="#DejaVuSans-30" x="63.623047"/>
       <use xlink:href="#DejaVuSans-30" x="127.246094"/>
       <use xlink:href="#DejaVuSans-30" x="190.869141"/>
      </g>
     </g>
    </g>
    <g id="ytick_6">
     <g id="line2d_16">
      <path d="M 54 199.577757 
L 388.8 199.577757 
" clip-path="url(#pc61beff77d)" style="fill: none; stroke-dasharray: 0.5,0.825; stroke-dashoffset: 0; stroke: #000000; stroke-width: 0.5"/>
     </g>
     <g id="line2d_17">
      <g>
       <use xlink:href="#m58663804f4" x="54" y="199.577757" style="stroke: #000000; stroke-width: 0.8"/>
      </g>
     </g>
     <g id="text_11">
      <!-- 10000 -->
      <g transform="translate(15.1875 203.376975) scale(0.1 -0.1)">
       <use xlink:href="#DejaVuSans-31"/>
       <use xlink:href="#DejaVuSans-30" x="63.623047"/>
       <use xlink:href="#DejaVuSans-30" x="127.246094"/>
       <use xlink:href="#DejaVuSans-30" x="190.869141"/>
       <use xlink:href="#DejaVuSans-30" x="254.492188"/>
      </g>
     </g>
    </g>
    <g id="ytick_7">
     <g id="line2d_18">
      <path d="M 54 136.965308 
L 388.8 136.965308 
" clip-path="url(#pc61beff77d)" style="fill: none; stroke-dasharray: 0.5,0.825; stroke-dashoffset: 0; stroke: #000000; stroke-width: 0.5"/>
     </g>
     <g id="line2d_19">
      <g>
       <use xlink:href="#m58663804f4" x="54" y="136.965308" style="stroke: #000000; stroke-width: 0.8"/>
      </g>
     </g>
     <g id="text_12">
      <!-- 12000 -->
      <g transform="translate(15.1875 140.764527) scale(0.1 -0.1)">
       <use xlink:href="#DejaVuSans-31"/>
       <use xlink:href="#DejaVuSans-32" x="63.623047"/>
       <use xlink:href="#DejaVuSans-30" x="127.246094"/>
       <use xlink:href="#DejaVuSans-30" x="190.869141"/>
       <use xlink:href="#DejaVuSans-30" x="254.492188"/>
      </g>
     </g>
    </g>
    <g id="ytick_8">
     <g id="line2d_20">
      <path d="M 54 74.352859 
L 388.8 74.352859 
" clip-path="url(#pc61beff77d)" style="fill: none; stroke-dasharray: 0.5,0.825; stroke-dashoffset: 0; stroke: #000000; stroke-width: 0.5"/>
     </g>
     <g id="line2d_21">
      <g>
       <use xlink:href="#m58663804f4" x="54" y="74.352859" style="stroke: #000000; stroke-width: 0.8"/>
      </g>
     </g>
     <g id="text_13">
      <!-- 14000 -->
      <g transform="translate(15.1875 78.152078) scale(0.1 -0.1)">
       <use xlink:href="#DejaVuSans-31"/>
       <use xlink:href="#DejaVuSans-34" x="63.623047"/>
       <use xlink:href="#DejaVuSans-30" x="127.246094"/>
       <use xlink:href="#DejaVuSans-30" x="190.869141"/>
       <use xlink:href="#DejaVuSans-30" x="254.492188"/>
      </g>
     </g>
    </g>
   </g>
   <g id="patch_44">
    <path d="M 54 512.64 
L 54 69.12 
" style="fill: none; stroke: #000000; stroke-width: 0.8; stroke-linejoin: miter; stroke-linecap: square"/>
   </g>
   <g id="patch_45">
    <path d="M 388.8 512.64 
L 388.8 69.12 
" style="fill: none; stroke: #000000; stroke-width: 0.8; stroke-linejoin: miter; stroke-linecap: square"/>
   </g>
   <g id="patch_46">
    <path d="M 54 512.64 
L 388.8 512.64 
" style="fill: none; stroke: #000000; stroke-width: 0.8; stroke-linejoin: miter; stroke-linecap: square"/>
   </g>
   <g id="patch_47">
    <path d="M 54 69.12 
L 388.8 69.12 
" style="fill: none; stroke: #000000; stroke-width: 0.8; stroke-linejoin: miter; stroke-linecap: square"/>
   </g>
  </g>
 </g>
 <defs>
  <clipPath id="pc61beff77d">
   <rect x="54" y="69.12" width="334.8" height="443.52"/>
  </clipPath>
 </defs>
</svg>
