<?xml version="1.0" encoding="utf-8" standalone="no"?>
<!DOCTYPE svg PUBLIC "-//W3C//DTD SVG 1.1//EN"
  "http://www.w3.org/Graphics/SVG/1.1/DTD/svg11.dtd">
<svg xmlns:xlink="http://www.w3.org/1999/xlink" width="1164.1225pt" height="363.2715pt" viewBox="0 0 1164.1225 363.2715" xmlns="http://www.w3.org/2000/svg" version="1.1">
 <metadata>
  <rdf:RDF xmlns:dc="http://purl.org/dc/elements/1.1/" xmlns:cc="http://creativecommons.org/ns#" xmlns:rdf="http://www.w3.org/1999/02/22-rdf-syntax-ns#">
   <cc:Work>
    <dc:type rdf:resource="http://purl.org/dc/dcmitype/StillImage"/>
    <dc:date>2024-09-25T12:33:46.723080</dc:date>
    <dc:format>image/svg+xml</dc:format>
    <dc:creator>
     <cc:Agent>
      <dc:title>Matplotlib v3.9.0, https://matplotlib.org/</dc:title>
     </cc:Agent>
    </dc:creator>
   </cc:Work>
  </rdf:RDF>
 </metadata>
 <defs>
  <style type="text/css">*{stroke-linejoin: round; stroke-linecap: butt}</style>
 </defs>
 <g id="figure_1">
  <g id="patch_1">
   <path d="M 0 363.2715 
L 1164.1225 363.2715 
L 1164.1225 0 
L 0 0 
z
" style="fill: #ffffff"/>
  </g>
  <g id="axes_1">
   <g id="patch_2">
    <path d="M 40.9225 340.164 
L 1156.9225 340.164 
L 1156.9225 62.964 
L 40.9225 62.964 
z
" style="fill: #ffffff"/>
   </g>
   <g id="patch_3">
    <path d="M 80.779643 709.764 
L 96.7225 709.764 
L 96.7225 218.371848 
L 80.779643 218.371848 
z
" clip-path="url(#p2159e022de)" style="fill: #1f77b4"/>
   </g>
   <g id="patch_4">
    <path d="M 240.208214 709.764 
L 256.151071 709.764 
L 256.151071 338.670893 
L 240.208214 338.670893 
z
" clip-path="url(#p2159e022de)" style="fill: #1f77b4"/>
   </g>
   <g id="patch_5">
    <path d="M 399.636786 709.764 
L 415.579643 709.764 
L 415.579643 211.510484 
L 399.636786 211.510484 
z
" clip-path="url(#p2159e022de)" style="fill: #1f77b4"/>
   </g>
   <g id="patch_6">
    <path d="M 559.065357 709.764 
L 575.008214 709.764 
L 575.008214 179.901929 
L 559.065357 179.901929 
z
" clip-path="url(#p2159e022de)" style="fill: #1f77b4"/>
   </g>
   <g id="patch_7">
    <path d="M 718.493929 709.764 
L 734.436786 709.764 
L 734.436786 252.46479 
L 718.493929 252.46479 
z
" clip-path="url(#p2159e022de)" style="fill: #1f77b4"/>
   </g>
   <g id="patch_8">
    <path d="M 877.9225 709.764 
L 893.865357 709.764 
L 893.865357 265.141001 
L 877.9225 265.141001 
z
" clip-path="url(#p2159e022de)" style="fill: #1f77b4"/>
   </g>
   <g id="patch_9">
    <path d="M 1037.351071 709.764 
L 1053.293929 709.764 
L 1053.293929 145.461183 
L 1037.351071 145.461183 
z
" clip-path="url(#p2159e022de)" style="fill: #1f77b4"/>
   </g>
   <g id="patch_10">
    <path d="M 96.7225 709.764 
L 112.665357 709.764 
L 112.665357 218.961923 
L 96.7225 218.961923 
z
" clip-path="url(#p2159e022de)" style="fill: #ff7f0e"/>
   </g>
   <g id="patch_11">
    <path d="M 256.151071 709.764 
L 272.093929 709.764 
L 272.093929 315.746519 
L 256.151071 315.746519 
z
" clip-path="url(#p2159e022de)" style="fill: #ff7f0e"/>
   </g>
   <g id="patch_12">
    <path d="M 415.579643 709.764 
L 431.5225 709.764 
L 431.5225 227.774018 
L 415.579643 227.774018 
z
" clip-path="url(#p2159e022de)" style="fill: #ff7f0e"/>
   </g>
   <g id="patch_13">
    <path d="M 575.008214 709.764 
L 590.951071 709.764 
L 590.951071 196.649073 
L 575.008214 196.649073 
z
" clip-path="url(#p2159e022de)" style="fill: #ff7f0e"/>
   </g>
   <g id="patch_14">
    <path d="M 734.436786 709.764 
L 750.379643 709.764 
L 750.379643 240.215208 
L 734.436786 240.215208 
z
" clip-path="url(#p2159e022de)" style="fill: #ff7f0e"/>
   </g>
   <g id="patch_15">
    <path d="M 893.865357 709.764 
L 909.808214 709.764 
L 909.808214 272.404658 
L 893.865357 272.404658 
z
" clip-path="url(#p2159e022de)" style="fill: #ff7f0e"/>
   </g>
   <g id="patch_16">
    <path d="M 1053.293929 709.764 
L 1069.236786 709.764 
L 1069.236786 157.902369 
L 1053.293929 157.902369 
z
" clip-path="url(#p2159e022de)" style="fill: #ff7f0e"/>
   </g>
   <g id="patch_17">
    <path d="M 112.665357 709.764 
L 128.608214 709.764 
L 128.608214 245.127158 
L 112.665357 245.127158 
z
" clip-path="url(#p2159e022de)" style="fill: #2ca02c"/>
   </g>
   <g id="patch_18">
    <path d="M 272.093929 709.764 
L 288.036786 709.764 
L 288.036786 332.587418 
L 272.093929 332.587418 
z
" clip-path="url(#p2159e022de)" style="fill: #2ca02c"/>
   </g>
   <g id="patch_19">
    <path d="M 431.5225 709.764 
L 447.465357 709.764 
L 447.465357 213.116728 
L 431.5225 213.116728 
z
" clip-path="url(#p2159e022de)" style="fill: #2ca02c"/>
   </g>
   <g id="patch_20">
    <path d="M 590.951071 709.764 
L 606.893929 709.764 
L 606.893929 191.549362 
L 590.951071 191.549362 
z
" clip-path="url(#p2159e022de)" style="fill: #2ca02c"/>
   </g>
   <g id="patch_21">
    <path d="M 750.379643 709.764 
L 766.3225 709.764 
L 766.3225 267.358676 
L 750.379643 267.358676 
z
" clip-path="url(#p2159e022de)" style="fill: #2ca02c"/>
   </g>
   <g id="patch_22">
    <path d="M 909.808214 709.764 
L 925.751071 709.764 
L 925.751071 284.644217 
L 909.808214 284.644217 
z
" clip-path="url(#p2159e022de)" style="fill: #2ca02c"/>
   </g>
   <g id="patch_23">
    <path d="M 1069.236786 709.764 
L 1085.179643 709.764 
L 1085.179643 155.581802 
L 1069.236786 155.581802 
z
" clip-path="url(#p2159e022de)" style="fill: #2ca02c"/>
   </g>
   <g id="patch_24">
    <path d="M 128.608214 709.764 
L 144.551071 709.764 
L 144.551071 221.488006 
L 128.608214 221.488006 
z
" clip-path="url(#p2159e022de)" style="fill: #d62728"/>
   </g>
   <g id="patch_25">
    <path d="M 288.036786 709.764 
L 303.979643 709.764 
L 303.979643 313.599239 
L 288.036786 313.599239 
z
" clip-path="url(#p2159e022de)" style="fill: #d62728"/>
   </g>
   <g id="patch_26">
    <path d="M 447.465357 709.764 
L 463.408214 709.764 
L 463.408214 193.779206 
L 447.465357 193.779206 
z
" clip-path="url(#p2159e022de)" style="fill: #d62728"/>
   </g>
   <g id="patch_27">
    <path d="M 606.893929 709.764 
L 622.836786 709.764 
L 622.836786 171.393271 
L 606.893929 171.393271 
z
" clip-path="url(#p2159e022de)" style="fill: #d62728"/>
   </g>
   <g id="patch_28">
    <path d="M 766.3225 709.764 
L 782.265357 709.764 
L 782.265357 246.085622 
L 766.3225 246.085622 
z
" clip-path="url(#p2159e022de)" style="fill: #d62728"/>
   </g>
   <g id="patch_29">
    <path d="M 925.751071 709.764 
L 941.693929 709.764 
L 941.693929 254.335787 
L 925.751071 254.335787 
z
" clip-path="url(#p2159e022de)" style="fill: #d62728"/>
   </g>
   <g id="patch_30">
    <path d="M 1085.179643 709.764 
L 1101.1225 709.764 
L 1101.1225 129.792585 
L 1085.179643 129.792585 
z
" clip-path="url(#p2159e022de)" style="fill: #d62728"/>
   </g>
   <g id="patch_31">
    <path d="M 144.551071 709.764 
L 160.493929 709.764 
L 160.493929 220.993831 
L 144.551071 220.993831 
z
" clip-path="url(#p2159e022de)" style="fill: #9467bd"/>
   </g>
   <g id="patch_32">
    <path d="M 303.979643 709.764 
L 319.9225 709.764 
L 319.9225 314.935787 
L 303.979643 314.935787 
z
" clip-path="url(#p2159e022de)" style="fill: #9467bd"/>
   </g>
   <g id="patch_33">
    <path d="M 463.408214 709.764 
L 479.351071 709.764 
L 479.351071 180.796554 
L 463.408214 180.796554 
z
" clip-path="url(#p2159e022de)" style="fill: #9467bd"/>
   </g>
   <g id="patch_34">
    <path d="M 622.836786 709.764 
L 638.779643 709.764 
L 638.779643 147.61921 
L 622.836786 147.61921 
z
" clip-path="url(#p2159e022de)" style="fill: #9467bd"/>
   </g>
   <g id="patch_35">
    <path d="M 782.265357 709.764 
L 798.208214 709.764 
L 798.208214 239.46066 
L 782.265357 239.46066 
z
" clip-path="url(#p2159e022de)" style="fill: #9467bd"/>
   </g>
   <g id="patch_36">
    <path d="M 941.693929 709.764 
L 957.636786 709.764 
L 957.636786 256.395581 
L 941.693929 256.395581 
z
" clip-path="url(#p2159e022de)" style="fill: #9467bd"/>
   </g>
   <g id="patch_37">
    <path d="M 1101.1225 709.764 
L 1117.065357 709.764 
L 1117.065357 104.277755 
L 1101.1225 104.277755 
z
" clip-path="url(#p2159e022de)" style="fill: #9467bd"/>
   </g>
   <g id="matplotlib.axis_1">
    <g id="xtick_1">
     <g id="line2d_1">
      <defs>
       <path id="m34366fe805" d="M 0 0 
L 0 3.5 
" style="stroke: #000000; stroke-width: 0.8"/>
      </defs>
      <g>
       <use xlink:href="#m34366fe805" x="120.636786" y="340.164" style="stroke: #000000; stroke-width: 0.8"/>
      </g>
     </g>
     <g id="text_1">
      <!-- 0 -->
      <g transform="translate(124.499911 356.0715) rotate(-90) scale(0.14 -0.14)">
       <defs>
        <path id="DejaVuSans-30" d="M 2034 4250 
Q 1547 4250 1301 3770 
Q 1056 3291 1056 2328 
Q 1056 1369 1301 889 
Q 1547 409 2034 409 
Q 2525 409 2770 889 
Q 3016 1369 3016 2328 
Q 3016 3291 2770 3770 
Q 2525 4250 2034 4250 
z
M 2034 4750 
Q 2819 4750 3233 4129 
Q 3647 3509 3647 2328 
Q 3647 1150 3233 529 
Q 2819 -91 2034 -91 
Q 1250 -91 836 529 
Q 422 1150 422 2328 
Q 422 3509 836 4129 
Q 1250 4750 2034 4750 
z
" transform="scale(0.015625)"/>
       </defs>
       <use xlink:href="#DejaVuSans-30"/>
      </g>
     </g>
    </g>
    <g id="xtick_2">
     <g id="line2d_2">
      <g>
       <use xlink:href="#m34366fe805" x="280.065357" y="340.164" style="stroke: #000000; stroke-width: 0.8"/>
      </g>
     </g>
     <g id="text_2">
      <!-- 1 -->
      <g transform="translate(283.928482 356.0715) rotate(-90) scale(0.14 -0.14)">
       <defs>
        <path id="DejaVuSans-31" d="M 794 531 
L 1825 531 
L 1825 4091 
L 703 3866 
L 703 4441 
L 1819 4666 
L 2450 4666 
L 2450 531 
L 3481 531 
L 3481 0 
L 794 0 
L 794 531 
z
" transform="scale(0.015625)"/>
       </defs>
       <use xlink:href="#DejaVuSans-31"/>
      </g>
     </g>
    </g>
    <g id="xtick_3">
     <g id="line2d_3">
      <g>
       <use xlink:href="#m34366fe805" x="439.493929" y="340.164" style="stroke: #000000; stroke-width: 0.8"/>
      </g>
     </g>
     <g id="text_3">
      <!-- 2 -->
      <g transform="translate(443.357054 356.0715) rotate(-90) scale(0.14 -0.14)">
       <defs>
        <path id="DejaVuSans-32" d="M 1228 531 
L 3431 531 
L 3431 0 
L 469 0 
L 469 531 
Q 828 903 1448 1529 
Q 2069 2156 2228 2338 
Q 2531 2678 2651 2914 
Q 2772 3150 2772 3378 
Q 2772 3750 2511 3984 
Q 2250 4219 1831 4219 
Q 1534 4219 1204 4116 
Q 875 4013 500 3803 
L 500 4441 
Q 881 4594 1212 4672 
Q 1544 4750 1819 4750 
Q 2544 4750 2975 4387 
Q 3406 4025 3406 3419 
Q 3406 3131 3298 2873 
Q 3191 2616 2906 2266 
Q 2828 2175 2409 1742 
Q 1991 1309 1228 531 
z
" transform="scale(0.015625)"/>
       </defs>
       <use xlink:href="#DejaVuSans-32"/>
      </g>
     </g>
    </g>
    <g id="xtick_4">
     <g id="line2d_4">
      <g>
       <use xlink:href="#m34366fe805" x="598.9225" y="340.164" style="stroke: #000000; stroke-width: 0.8"/>
      </g>
     </g>
     <g id="text_4">
      <!-- 3 -->
      <g transform="translate(602.785625 356.0715) rotate(-90) scale(0.14 -0.14)">
       <defs>
        <path id="DejaVuSans-33" d="M 2597 2516 
Q 3050 2419 3304 2112 
Q 3559 1806 3559 1356 
Q 3559 666 3084 287 
Q 2609 -91 1734 -91 
Q 1441 -91 1130 -33 
Q 819 25 488 141 
L 488 750 
Q 750 597 1062 519 
Q 1375 441 1716 441 
Q 2309 441 2620 675 
Q 2931 909 2931 1356 
Q 2931 1769 2642 2001 
Q 2353 2234 1838 2234 
L 1294 2234 
L 1294 2753 
L 1863 2753 
Q 2328 2753 2575 2939 
Q 2822 3125 2822 3475 
Q 2822 3834 2567 4026 
Q 2313 4219 1838 4219 
Q 1578 4219 1281 4162 
Q 984 4106 628 3988 
L 628 4550 
Q 988 4650 1302 4700 
Q 1616 4750 1894 4750 
Q 2613 4750 3031 4423 
Q 3450 4097 3450 3541 
Q 3450 3153 3228 2886 
Q 3006 2619 2597 2516 
z
" transform="scale(0.015625)"/>
       </defs>
       <use xlink:href="#DejaVuSans-33"/>
      </g>
     </g>
    </g>
    <g id="xtick_5">
     <g id="line2d_5">
      <g>
       <use xlink:href="#m34366fe805" x="758.351071" y="340.164" style="stroke: #000000; stroke-width: 0.8"/>
      </g>
     </g>
     <g id="text_5">
      <!-- 4 -->
      <g transform="translate(762.214196 356.0715) rotate(-90) scale(0.14 -0.14)">
       <defs>
        <path id="DejaVuSans-34" d="M 2419 4116 
L 825 1625 
L 2419 1625 
L 2419 4116 
z
M 2253 4666 
L 3047 4666 
L 3047 1625 
L 3713 1625 
L 3713 1100 
L 3047 1100 
L 3047 0 
L 2419 0 
L 2419 1100 
L 313 1100 
L 313 1709 
L 2253 4666 
z
" transform="scale(0.015625)"/>
       </defs>
       <use xlink:href="#DejaVuSans-34"/>
      </g>
     </g>
    </g>
    <g id="xtick_6">
     <g id="line2d_6">
      <g>
       <use xlink:href="#m34366fe805" x="917.779643" y="340.164" style="stroke: #000000; stroke-width: 0.8"/>
      </g>
     </g>
     <g id="text_6">
      <!-- 5 -->
      <g transform="translate(921.642768 356.0715) rotate(-90) scale(0.14 -0.14)">
       <defs>
        <path id="DejaVuSans-35" d="M 691 4666 
L 3169 4666 
L 3169 4134 
L 1269 4134 
L 1269 2991 
Q 1406 3038 1543 3061 
Q 1681 3084 1819 3084 
Q 2600 3084 3056 2656 
Q 3513 2228 3513 1497 
Q 3513 744 3044 326 
Q 2575 -91 1722 -91 
Q 1428 -91 1123 -41 
Q 819 9 494 109 
L 494 744 
Q 775 591 1075 516 
Q 1375 441 1709 441 
Q 2250 441 2565 725 
Q 2881 1009 2881 1497 
Q 2881 1984 2565 2268 
Q 2250 2553 1709 2553 
Q 1456 2553 1204 2497 
Q 953 2441 691 2322 
L 691 4666 
z
" transform="scale(0.015625)"/>
       </defs>
       <use xlink:href="#DejaVuSans-35"/>
      </g>
     </g>
    </g>
    <g id="xtick_7">
     <g id="line2d_7">
      <g>
       <use xlink:href="#m34366fe805" x="1077.208214" y="340.164" style="stroke: #000000; stroke-width: 0.8"/>
      </g>
     </g>
     <g id="text_7">
      <!-- 6 -->
      <g transform="translate(1081.071339 356.0715) rotate(-90) scale(0.14 -0.14)">
       <defs>
        <path id="DejaVuSans-36" d="M 2113 2584 
Q 1688 2584 1439 2293 
Q 1191 2003 1191 1497 
Q 1191 994 1439 701 
Q 1688 409 2113 409 
Q 2538 409 2786 701 
Q 3034 994 3034 1497 
Q 3034 2003 2786 2293 
Q 2538 2584 2113 2584 
z
M 3366 4563 
L 3366 3988 
Q 3128 4100 2886 4159 
Q 2644 4219 2406 4219 
Q 1781 4219 1451 3797 
Q 1122 3375 1075 2522 
Q 1259 2794 1537 2939 
Q 1816 3084 2150 3084 
Q 2853 3084 3261 2657 
Q 3669 2231 3669 1497 
Q 3669 778 3244 343 
Q 2819 -91 2113 -91 
Q 1303 -91 875 529 
Q 447 1150 447 2328 
Q 447 3434 972 4092 
Q 1497 4750 2381 4750 
Q 2619 4750 2861 4703 
Q 3103 4656 3366 4563 
z
" transform="scale(0.015625)"/>
       </defs>
       <use xlink:href="#DejaVuSans-36"/>
      </g>
     </g>
    </g>
   </g>
   <g id="matplotlib.axis_2">
    <g id="ytick_1">
     <g id="line2d_8">
      <path d="M 40.9225 340.164 
L 1156.9225 340.164 
" clip-path="url(#p2159e022de)" style="fill: none; stroke-dasharray: 0.5,0.825; stroke-dashoffset: 0; stroke: #000000; stroke-width: 0.5"/>
     </g>
     <g id="line2d_9">
      <defs>
       <path id="m53802163eb" d="M 0 0 
L -3.5 0 
" style="stroke: #000000; stroke-width: 0.8"/>
      </defs>
      <g>
       <use xlink:href="#m53802163eb" x="40.9225" y="340.164" style="stroke: #000000; stroke-width: 0.8"/>
      </g>
     </g>
     <g id="text_8">
      <!-- 120 -->
      <g transform="translate(7.2 345.482906) scale(0.14 -0.14)">
       <use xlink:href="#DejaVuSans-31"/>
       <use xlink:href="#DejaVuSans-32" x="63.623047"/>
       <use xlink:href="#DejaVuSans-30" x="127.246094"/>
      </g>
     </g>
    </g>
    <g id="ytick_2">
     <g id="line2d_10">
      <path d="M 40.9225 309.364 
L 1156.9225 309.364 
" clip-path="url(#p2159e022de)" style="fill: none; stroke-dasharray: 0.5,0.825; stroke-dashoffset: 0; stroke: #000000; stroke-width: 0.5"/>
     </g>
     <g id="line2d_11">
      <g>
       <use xlink:href="#m53802163eb" x="40.9225" y="309.364" style="stroke: #000000; stroke-width: 0.8"/>
      </g>
     </g>
     <g id="text_9">
      <!-- 130 -->
      <g transform="translate(7.2 314.682906) scale(0.14 -0.14)">
       <use xlink:href="#DejaVuSans-31"/>
       <use xlink:href="#DejaVuSans-33" x="63.623047"/>
       <use xlink:href="#DejaVuSans-30" x="127.246094"/>
      </g>
     </g>
    </g>
    <g id="ytick_3">
     <g id="line2d_12">
      <path d="M 40.9225 278.564 
L 1156.9225 278.564 
" clip-path="url(#p2159e022de)" style="fill: none; stroke-dasharray: 0.5,0.825; stroke-dashoffset: 0; stroke: #000000; stroke-width: 0.5"/>
     </g>
     <g id="line2d_13">
      <g>
       <use xlink:href="#m53802163eb" x="40.9225" y="278.564" style="stroke: #000000; stroke-width: 0.8"/>
      </g>
     </g>
     <g id="text_10">
      <!-- 140 -->
      <g transform="translate(7.2 283.882906) scale(0.14 -0.14)">
       <use xlink:href="#DejaVuSans-31"/>
       <use xlink:href="#DejaVuSans-34" x="63.623047"/>
       <use xlink:href="#DejaVuSans-30" x="127.246094"/>
      </g>
     </g>
    </g>
    <g id="ytick_4">
     <g id="line2d_14">
      <path d="M 40.9225 247.764 
L 1156.9225 247.764 
" clip-path="url(#p2159e022de)" style="fill: none; stroke-dasharray: 0.5,0.825; stroke-dashoffset: 0; stroke: #000000; stroke-width: 0.5"/>
     </g>
     <g id="line2d_15">
      <g>
       <use xlink:href="#m53802163eb" x="40.9225" y="247.764" style="stroke: #000000; stroke-width: 0.8"/>
      </g>
     </g>
     <g id="text_11">
      <!-- 150 -->
      <g transform="translate(7.2 253.082906) scale(0.14 -0.14)">
       <use xlink:href="#DejaVuSans-31"/>
       <use xlink:href="#DejaVuSans-35" x="63.623047"/>
       <use xlink:href="#DejaVuSans-30" x="127.246094"/>
      </g>
     </g>
    </g>
    <g id="ytick_5">
     <g id="line2d_16">
      <path d="M 40.9225 216.964 
L 1156.9225 216.964 
" clip-path="url(#p2159e022de)" style="fill: none; stroke-dasharray: 0.5,0.825; stroke-dashoffset: 0; stroke: #000000; stroke-width: 0.5"/>
     </g>
     <g id="line2d_17">
      <g>
       <use xlink:href="#m53802163eb" x="40.9225" y="216.964" style="stroke: #000000; stroke-width: 0.8"/>
      </g>
     </g>
     <g id="text_12">
      <!-- 160 -->
      <g transform="translate(7.2 222.282906) scale(0.14 -0.14)">
       <use xlink:href="#DejaVuSans-31"/>
       <use xlink:href="#DejaVuSans-36" x="63.623047"/>
       <use xlink:href="#DejaVuSans-30" x="127.246094"/>
      </g>
     </g>
    </g>
    <g id="ytick_6">
     <g id="line2d_18">
      <path d="M 40.9225 186.164 
L 1156.9225 186.164 
" clip-path="url(#p2159e022de)" style="fill: none; stroke-dasharray: 0.5,0.825; stroke-dashoffset: 0; stroke: #000000; stroke-width: 0.5"/>
     </g>
     <g id="line2d_19">
      <g>
       <use xlink:href="#m53802163eb" x="40.9225" y="186.164" style="stroke: #000000; stroke-width: 0.8"/>
      </g>
     </g>
     <g id="text_13">
      <!-- 170 -->
      <g transform="translate(7.2 191.482906) scale(0.14 -0.14)">
       <defs>
        <path id="DejaVuSans-37" d="M 525 4666 
L 3525 4666 
L 3525 4397 
L 1831 0 
L 1172 0 
L 2766 4134 
L 525 4134 
L 525 4666 
z
" transform="scale(0.015625)"/>
       </defs>
       <use xlink:href="#DejaVuSans-31"/>
       <use xlink:href="#DejaVuSans-37" x="63.623047"/>
       <use xlink:href="#DejaVuSans-30" x="127.246094"/>
      </g>
     </g>
    </g>
    <g id="ytick_7">
     <g id="line2d_20">
      <path d="M 40.9225 155.364 
L 1156.9225 155.364 
" clip-path="url(#p2159e022de)" style="fill: none; stroke-dasharray: 0.5,0.825; stroke-dashoffset: 0; stroke: #000000; stroke-width: 0.5"/>
     </g>
     <g id="line2d_21">
      <g>
       <use xlink:href="#m53802163eb" x="40.9225" y="155.364" style="stroke: #000000; stroke-width: 0.8"/>
      </g>
     </g>
     <g id="text_14">
      <!-- 180 -->
      <g transform="translate(7.2 160.682906) scale(0.14 -0.14)">
       <defs>
        <path id="DejaVuSans-38" d="M 2034 2216 
Q 1584 2216 1326 1975 
Q 1069 1734 1069 1313 
Q 1069 891 1326 650 
Q 1584 409 2034 409 
Q 2484 409 2743 651 
Q 3003 894 3003 1313 
Q 3003 1734 2745 1975 
Q 2488 2216 2034 2216 
z
M 1403 2484 
Q 997 2584 770 2862 
Q 544 3141 544 3541 
Q 544 4100 942 4425 
Q 1341 4750 2034 4750 
Q 2731 4750 3128 4425 
Q 3525 4100 3525 3541 
Q 3525 3141 3298 2862 
Q 3072 2584 2669 2484 
Q 3125 2378 3379 2068 
Q 3634 1759 3634 1313 
Q 3634 634 3220 271 
Q 2806 -91 2034 -91 
Q 1263 -91 848 271 
Q 434 634 434 1313 
Q 434 1759 690 2068 
Q 947 2378 1403 2484 
z
M 1172 3481 
Q 1172 3119 1398 2916 
Q 1625 2713 2034 2713 
Q 2441 2713 2670 2916 
Q 2900 3119 2900 3481 
Q 2900 3844 2670 4047 
Q 2441 4250 2034 4250 
Q 1625 4250 1398 4047 
Q 1172 3844 1172 3481 
z
" transform="scale(0.015625)"/>
       </defs>
       <use xlink:href="#DejaVuSans-31"/>
       <use xlink:href="#DejaVuSans-38" x="63.623047"/>
       <use xlink:href="#DejaVuSans-30" x="127.246094"/>
      </g>
     </g>
    </g>
    <g id="ytick_8">
     <g id="line2d_22">
      <path d="M 40.9225 124.564 
L 1156.9225 124.564 
" clip-path="url(#p2159e022de)" style="fill: none; stroke-dasharray: 0.5,0.825; stroke-dashoffset: 0; stroke: #000000; stroke-width: 0.5"/>
     </g>
     <g id="line2d_23">
      <g>
       <use xlink:href="#m53802163eb" x="40.9225" y="124.564" style="stroke: #000000; stroke-width: 0.8"/>
      </g>
     </g>
     <g id="text_15">
      <!-- 190 -->
      <g transform="translate(7.2 129.882906) scale(0.14 -0.14)">
       <defs>
        <path id="DejaVuSans-39" d="M 703 97 
L 703 672 
Q 941 559 1184 500 
Q 1428 441 1663 441 
Q 2288 441 2617 861 
Q 2947 1281 2994 2138 
Q 2813 1869 2534 1725 
Q 2256 1581 1919 1581 
Q 1219 1581 811 2004 
Q 403 2428 403 3163 
Q 403 3881 828 4315 
Q 1253 4750 1959 4750 
Q 2769 4750 3195 4129 
Q 3622 3509 3622 2328 
Q 3622 1225 3098 567 
Q 2575 -91 1691 -91 
Q 1453 -91 1209 -44 
Q 966 3 703 97 
z
M 1959 2075 
Q 2384 2075 2632 2365 
Q 2881 2656 2881 3163 
Q 2881 3666 2632 3958 
Q 2384 4250 1959 4250 
Q 1534 4250 1286 3958 
Q 1038 3666 1038 3163 
Q 1038 2656 1286 2365 
Q 1534 2075 1959 2075 
z
" transform="scale(0.015625)"/>
       </defs>
       <use xlink:href="#DejaVuSans-31"/>
       <use xlink:href="#DejaVuSans-39" x="63.623047"/>
       <use xlink:href="#DejaVuSans-30" x="127.246094"/>
      </g>
     </g>
    </g>
    <g id="ytick_9">
     <g id="line2d_24">
      <path d="M 40.9225 93.764 
L 1156.9225 93.764 
" clip-path="url(#p2159e022de)" style="fill: none; stroke-dasharray: 0.5,0.825; stroke-dashoffset: 0; stroke: #000000; stroke-width: 0.5"/>
     </g>
     <g id="line2d_25">
      <g>
       <use xlink:href="#m53802163eb" x="40.9225" y="93.764" style="stroke: #000000; stroke-width: 0.8"/>
      </g>
     </g>
     <g id="text_16">
      <!-- 200 -->
      <g transform="translate(7.2 99.082906) scale(0.14 -0.14)">
       <use xlink:href="#DejaVuSans-32"/>
       <use xlink:href="#DejaVuSans-30" x="63.623047"/>
       <use xlink:href="#DejaVuSans-30" x="127.246094"/>
      </g>
     </g>
    </g>
    <g id="ytick_10">
     <g id="line2d_26">
      <path d="M 40.9225 62.964 
L 1156.9225 62.964 
" clip-path="url(#p2159e022de)" style="fill: none; stroke-dasharray: 0.5,0.825; stroke-dashoffset: 0; stroke: #000000; stroke-width: 0.5"/>
     </g>
     <g id="line2d_27">
      <g>
       <use xlink:href="#m53802163eb" x="40.9225" y="62.964" style="stroke: #000000; stroke-width: 0.8"/>
      </g>
     </g>
     <g id="text_17">
      <!-- 210 -->
      <g transform="translate(7.2 68.282906) scale(0.14 -0.14)">
       <use xlink:href="#DejaVuSans-32"/>
       <use xlink:href="#DejaVuSans-31" x="63.623047"/>
       <use xlink:href="#DejaVuSans-30" x="127.246094"/>
      </g>
     </g>
    </g>
   </g>
   <g id="patch_38">
    <path d="M 40.9225 340.164 
L 40.9225 62.964 
" style="fill: none; stroke: #000000; stroke-width: 0.8; stroke-linejoin: miter; stroke-linecap: square"/>
   </g>
   <g id="patch_39">
    <path d="M 1156.9225 340.164 
L 1156.9225 62.964 
" style="fill: none; stroke: #000000; stroke-width: 0.8; stroke-linejoin: miter; stroke-linecap: square"/>
   </g>
   <g id="patch_40">
    <path d="M 40.9225 340.164 
L 1156.9225 340.164 
" style="fill: none; stroke: #000000; stroke-width: 0.8; stroke-linejoin: miter; stroke-linecap: square"/>
   </g>
   <g id="patch_41">
    <path d="M 40.9225 62.964 
L 1156.9225 62.964 
" style="fill: none; stroke: #000000; stroke-width: 0.8; stroke-linejoin: miter; stroke-linecap: square"/>
   </g>
   <g id="text_18">
    <!-- - - - - - - - - - - - - - - - - - - - - - - - - - - - - - - - - - - - - - - - - - - - - - - - - - - - - - - - - - - - - - - - - - - - - - - - - - - - - - - - - - - - - - - - - - - - - - - - - - - - - - - - - - - - - - - - - - - - - - - - - - - -->
    <g transform="translate(334.830625 16.318125) scale(0.12 -0.12)">
     <defs>
      <path id="DejaVuSans-2d" d="M 313 2009 
L 1997 2009 
L 1997 1497 
L 313 1497 
L 313 2009 
z
" transform="scale(0.015625)"/>
     </defs>
     <use xlink:href="#DejaVuSans-2d"/>
     <use xlink:href="#DejaVuSans-2d" x="36.083984"/>
     <use xlink:href="#DejaVuSans-2d" x="72.167969"/>
     <use xlink:href="#DejaVuSans-2d" x="108.251953"/>
     <use xlink:href="#DejaVuSans-2d" x="144.335938"/>
     <use xlink:href="#DejaVuSans-2d" x="180.419922"/>
     <use xlink:href="#DejaVuSans-2d" x="216.503906"/>
     <use xlink:href="#DejaVuSans-2d" x="252.587891"/>
     <use xlink:href="#DejaVuSans-2d" x="288.671875"/>
     <use xlink:href="#DejaVuSans-2d" x="324.755859"/>
     <use xlink:href="#DejaVuSans-2d" x="360.839844"/>
     <use xlink:href="#DejaVuSans-2d" x="396.923828"/>
     <use xlink:href="#DejaVuSans-2d" x="433.007812"/>
     <use xlink:href="#DejaVuSans-2d" x="469.091797"/>
     <use xlink:href="#DejaVuSans-2d" x="505.175781"/>
     <use xlink:href="#DejaVuSans-2d" x="541.259766"/>
     <use xlink:href="#DejaVuSans-2d" x="577.34375"/>
     <use xlink:href="#DejaVuSans-2d" x="613.427734"/>
     <use xlink:href="#DejaVuSans-2d" x="649.511719"/>
     <use xlink:href="#DejaVuSans-2d" x="685.595703"/>
     <use xlink:href="#DejaVuSans-2d" x="721.679688"/>
     <use xlink:href="#DejaVuSans-2d" x="757.763672"/>
     <use xlink:href="#DejaVuSans-2d" x="793.847656"/>
     <use xlink:href="#DejaVuSans-2d" x="829.931641"/>
     <use xlink:href="#DejaVuSans-2d" x="866.015625"/>
     <use xlink:href="#DejaVuSans-2d" x="902.099609"/>
     <use xlink:href="#DejaVuSans-2d" x="938.183594"/>
     <use xlink:href="#DejaVuSans-2d" x="974.267578"/>
     <use xlink:href="#DejaVuSans-2d" x="1010.351562"/>
     <use xlink:href="#DejaVuSans-2d" x="1046.435547"/>
     <use xlink:href="#DejaVuSans-2d" x="1082.519531"/>
     <use xlink:href="#DejaVuSans-2d" x="1118.603516"/>
     <use xlink:href="#DejaVuSans-2d" x="1154.6875"/>
     <use xlink:href="#DejaVuSans-2d" x="1190.771484"/>
     <use xlink:href="#DejaVuSans-2d" x="1226.855469"/>
     <use xlink:href="#DejaVuSans-2d" x="1262.939453"/>
     <use xlink:href="#DejaVuSans-2d" x="1299.023438"/>
     <use xlink:href="#DejaVuSans-2d" x="1335.107422"/>
     <use xlink:href="#DejaVuSans-2d" x="1371.191406"/>
     <use xlink:href="#DejaVuSans-2d" x="1407.275391"/>
     <use xlink:href="#DejaVuSans-2d" x="1443.359375"/>
     <use xlink:href="#DejaVuSans-2d" x="1479.443359"/>
     <use xlink:href="#DejaVuSans-2d" x="1515.527344"/>
     <use xlink:href="#DejaVuSans-2d" x="1551.611328"/>
     <use xlink:href="#DejaVuSans-2d" x="1587.695312"/>
     <use xlink:href="#DejaVuSans-2d" x="1623.779297"/>
     <use xlink:href="#DejaVuSans-2d" x="1659.863281"/>
     <use xlink:href="#DejaVuSans-2d" x="1695.947266"/>
     <use xlink:href="#DejaVuSans-2d" x="1732.03125"/>
     <use xlink:href="#DejaVuSans-2d" x="1768.115234"/>
     <use xlink:href="#DejaVuSans-2d" x="1804.199219"/>
     <use xlink:href="#DejaVuSans-2d" x="1840.283203"/>
     <use xlink:href="#DejaVuSans-2d" x="1876.367188"/>
     <use xlink:href="#DejaVuSans-2d" x="1912.451172"/>
     <use xlink:href="#DejaVuSans-2d" x="1948.535156"/>
     <use xlink:href="#DejaVuSans-2d" x="1984.619141"/>
     <use xlink:href="#DejaVuSans-2d" x="2020.703125"/>
     <use xlink:href="#DejaVuSans-2d" x="2056.787109"/>
     <use xlink:href="#DejaVuSans-2d" x="2092.871094"/>
     <use xlink:href="#DejaVuSans-2d" x="2128.955078"/>
     <use xlink:href="#DejaVuSans-2d" x="2165.039062"/>
     <use xlink:href="#DejaVuSans-2d" x="2201.123047"/>
     <use xlink:href="#DejaVuSans-2d" x="2237.207031"/>
     <use xlink:href="#DejaVuSans-2d" x="2273.291016"/>
     <use xlink:href="#DejaVuSans-2d" x="2309.375"/>
     <use xlink:href="#DejaVuSans-2d" x="2345.458984"/>
     <use xlink:href="#DejaVuSans-2d" x="2381.542969"/>
     <use xlink:href="#DejaVuSans-2d" x="2417.626953"/>
     <use xlink:href="#DejaVuSans-2d" x="2453.710938"/>
     <use xlink:href="#DejaVuSans-2d" x="2489.794922"/>
     <use xlink:href="#DejaVuSans-2d" x="2525.878906"/>
     <use xlink:href="#DejaVuSans-2d" x="2561.962891"/>
     <use xlink:href="#DejaVuSans-2d" x="2598.046875"/>
     <use xlink:href="#DejaVuSans-2d" x="2634.130859"/>
     <use xlink:href="#DejaVuSans-2d" x="2670.214844"/>
     <use xlink:href="#DejaVuSans-2d" x="2706.298828"/>
     <use xlink:href="#DejaVuSans-2d" x="2742.382812"/>
     <use xlink:href="#DejaVuSans-2d" x="2778.466797"/>
     <use xlink:href="#DejaVuSans-2d" x="2814.550781"/>
     <use xlink:href="#DejaVuSans-2d" x="2850.634766"/>
     <use xlink:href="#DejaVuSans-2d" x="2886.71875"/>
     <use xlink:href="#DejaVuSans-2d" x="2922.802734"/>
     <use xlink:href="#DejaVuSans-2d" x="2958.886719"/>
     <use xlink:href="#DejaVuSans-2d" x="2994.970703"/>
     <use xlink:href="#DejaVuSans-2d" x="3031.054688"/>
     <use xlink:href="#DejaVuSans-2d" x="3067.138672"/>
     <use xlink:href="#DejaVuSans-2d" x="3103.222656"/>
     <use xlink:href="#DejaVuSans-2d" x="3139.306641"/>
     <use xlink:href="#DejaVuSans-2d" x="3175.390625"/>
     <use xlink:href="#DejaVuSans-2d" x="3211.474609"/>
     <use xlink:href="#DejaVuSans-2d" x="3247.558594"/>
     <use xlink:href="#DejaVuSans-2d" x="3283.642578"/>
     <use xlink:href="#DejaVuSans-2d" x="3319.726562"/>
     <use xlink:href="#DejaVuSans-2d" x="3355.810547"/>
     <use xlink:href="#DejaVuSans-2d" x="3391.894531"/>
     <use xlink:href="#DejaVuSans-2d" x="3427.978516"/>
     <use xlink:href="#DejaVuSans-2d" x="3464.0625"/>
     <use xlink:href="#DejaVuSans-2d" x="3500.146484"/>
     <use xlink:href="#DejaVuSans-2d" x="3536.230469"/>
     <use xlink:href="#DejaVuSans-2d" x="3572.314453"/>
     <use xlink:href="#DejaVuSans-2d" x="3608.398438"/>
     <use xlink:href="#DejaVuSans-2d" x="3644.482422"/>
     <use xlink:href="#DejaVuSans-2d" x="3680.566406"/>
     <use xlink:href="#DejaVuSans-2d" x="3716.650391"/>
     <use xlink:href="#DejaVuSans-2d" x="3752.734375"/>
     <use xlink:href="#DejaVuSans-2d" x="3788.818359"/>
     <use xlink:href="#DejaVuSans-2d" x="3824.902344"/>
     <use xlink:href="#DejaVuSans-2d" x="3860.986328"/>
     <use xlink:href="#DejaVuSans-2d" x="3897.070312"/>
     <use xlink:href="#DejaVuSans-2d" x="3933.154297"/>
     <use xlink:href="#DejaVuSans-2d" x="3969.238281"/>
     <use xlink:href="#DejaVuSans-2d" x="4005.322266"/>
     <use xlink:href="#DejaVuSans-2d" x="4041.40625"/>
     <use xlink:href="#DejaVuSans-2d" x="4077.490234"/>
     <use xlink:href="#DejaVuSans-2d" x="4113.574219"/>
     <use xlink:href="#DejaVuSans-2d" x="4149.658203"/>
     <use xlink:href="#DejaVuSans-2d" x="4185.742188"/>
     <use xlink:href="#DejaVuSans-2d" x="4221.826172"/>
     <use xlink:href="#DejaVuSans-2d" x="4257.910156"/>
     <use xlink:href="#DejaVuSans-2d" x="4293.994141"/>
     <use xlink:href="#DejaVuSans-2d" x="4330.078125"/>
     <use xlink:href="#DejaVuSans-2d" x="4366.162109"/>
    </g>
    <!-- Kmeans_K7_data_V1_0_average.  -->
    <g transform="translate(498.461875 29.7555) scale(0.12 -0.12)">
     <defs>
      <path id="DejaVuSans-4b" d="M 628 4666 
L 1259 4666 
L 1259 2694 
L 3353 4666 
L 4166 4666 
L 1850 2491 
L 4331 0 
L 3500 0 
L 1259 2247 
L 1259 0 
L 628 0 
L 628 4666 
z
" transform="scale(0.015625)"/>
      <path id="DejaVuSans-6d" d="M 3328 2828 
Q 3544 3216 3844 3400 
Q 4144 3584 4550 3584 
Q 5097 3584 5394 3201 
Q 5691 2819 5691 2113 
L 5691 0 
L 5113 0 
L 5113 2094 
Q 5113 2597 4934 2840 
Q 4756 3084 4391 3084 
Q 3944 3084 3684 2787 
Q 3425 2491 3425 1978 
L 3425 0 
L 2847 0 
L 2847 2094 
Q 2847 2600 2669 2842 
Q 2491 3084 2119 3084 
Q 1678 3084 1418 2786 
Q 1159 2488 1159 1978 
L 1159 0 
L 581 0 
L 581 3500 
L 1159 3500 
L 1159 2956 
Q 1356 3278 1631 3431 
Q 1906 3584 2284 3584 
Q 2666 3584 2933 3390 
Q 3200 3197 3328 2828 
z
" transform="scale(0.015625)"/>
      <path id="DejaVuSans-65" d="M 3597 1894 
L 3597 1613 
L 953 1613 
Q 991 1019 1311 708 
Q 1631 397 2203 397 
Q 2534 397 2845 478 
Q 3156 559 3463 722 
L 3463 178 
Q 3153 47 2828 -22 
Q 2503 -91 2169 -91 
Q 1331 -91 842 396 
Q 353 884 353 1716 
Q 353 2575 817 3079 
Q 1281 3584 2069 3584 
Q 2775 3584 3186 3129 
Q 3597 2675 3597 1894 
z
M 3022 2063 
Q 3016 2534 2758 2815 
Q 2500 3097 2075 3097 
Q 1594 3097 1305 2825 
Q 1016 2553 972 2059 
L 3022 2063 
z
" transform="scale(0.015625)"/>
      <path id="DejaVuSans-61" d="M 2194 1759 
Q 1497 1759 1228 1600 
Q 959 1441 959 1056 
Q 959 750 1161 570 
Q 1363 391 1709 391 
Q 2188 391 2477 730 
Q 2766 1069 2766 1631 
L 2766 1759 
L 2194 1759 
z
M 3341 1997 
L 3341 0 
L 2766 0 
L 2766 531 
Q 2569 213 2275 61 
Q 1981 -91 1556 -91 
Q 1019 -91 701 211 
Q 384 513 384 1019 
Q 384 1609 779 1909 
Q 1175 2209 1959 2209 
L 2766 2209 
L 2766 2266 
Q 2766 2663 2505 2880 
Q 2244 3097 1772 3097 
Q 1472 3097 1187 3025 
Q 903 2953 641 2809 
L 641 3341 
Q 956 3463 1253 3523 
Q 1550 3584 1831 3584 
Q 2591 3584 2966 3190 
Q 3341 2797 3341 1997 
z
" transform="scale(0.015625)"/>
      <path id="DejaVuSans-6e" d="M 3513 2113 
L 3513 0 
L 2938 0 
L 2938 2094 
Q 2938 2591 2744 2837 
Q 2550 3084 2163 3084 
Q 1697 3084 1428 2787 
Q 1159 2491 1159 1978 
L 1159 0 
L 581 0 
L 581 3500 
L 1159 3500 
L 1159 2956 
Q 1366 3272 1645 3428 
Q 1925 3584 2291 3584 
Q 2894 3584 3203 3211 
Q 3513 2838 3513 2113 
z
" transform="scale(0.015625)"/>
      <path id="DejaVuSans-73" d="M 2834 3397 
L 2834 2853 
Q 2591 2978 2328 3040 
Q 2066 3103 1784 3103 
Q 1356 3103 1142 2972 
Q 928 2841 928 2578 
Q 928 2378 1081 2264 
Q 1234 2150 1697 2047 
L 1894 2003 
Q 2506 1872 2764 1633 
Q 3022 1394 3022 966 
Q 3022 478 2636 193 
Q 2250 -91 1575 -91 
Q 1294 -91 989 -36 
Q 684 19 347 128 
L 347 722 
Q 666 556 975 473 
Q 1284 391 1588 391 
Q 1994 391 2212 530 
Q 2431 669 2431 922 
Q 2431 1156 2273 1281 
Q 2116 1406 1581 1522 
L 1381 1569 
Q 847 1681 609 1914 
Q 372 2147 372 2553 
Q 372 3047 722 3315 
Q 1072 3584 1716 3584 
Q 2034 3584 2315 3537 
Q 2597 3491 2834 3397 
z
" transform="scale(0.015625)"/>
      <path id="DejaVuSans-5f" d="M 3263 -1063 
L 3263 -1509 
L -63 -1509 
L -63 -1063 
L 3263 -1063 
z
" transform="scale(0.015625)"/>
      <path id="DejaVuSans-64" d="M 2906 2969 
L 2906 4863 
L 3481 4863 
L 3481 0 
L 2906 0 
L 2906 525 
Q 2725 213 2448 61 
Q 2172 -91 1784 -91 
Q 1150 -91 751 415 
Q 353 922 353 1747 
Q 353 2572 751 3078 
Q 1150 3584 1784 3584 
Q 2172 3584 2448 3432 
Q 2725 3281 2906 2969 
z
M 947 1747 
Q 947 1113 1208 752 
Q 1469 391 1925 391 
Q 2381 391 2643 752 
Q 2906 1113 2906 1747 
Q 2906 2381 2643 2742 
Q 2381 3103 1925 3103 
Q 1469 3103 1208 2742 
Q 947 2381 947 1747 
z
" transform="scale(0.015625)"/>
      <path id="DejaVuSans-74" d="M 1172 4494 
L 1172 3500 
L 2356 3500 
L 2356 3053 
L 1172 3053 
L 1172 1153 
Q 1172 725 1289 603 
Q 1406 481 1766 481 
L 2356 481 
L 2356 0 
L 1766 0 
Q 1100 0 847 248 
Q 594 497 594 1153 
L 594 3053 
L 172 3053 
L 172 3500 
L 594 3500 
L 594 4494 
L 1172 4494 
z
" transform="scale(0.015625)"/>
      <path id="DejaVuSans-56" d="M 1831 0 
L 50 4666 
L 709 4666 
L 2188 738 
L 3669 4666 
L 4325 4666 
L 2547 0 
L 1831 0 
z
" transform="scale(0.015625)"/>
      <path id="DejaVuSans-76" d="M 191 3500 
L 800 3500 
L 1894 563 
L 2988 3500 
L 3597 3500 
L 2284 0 
L 1503 0 
L 191 3500 
z
" transform="scale(0.015625)"/>
      <path id="DejaVuSans-72" d="M 2631 2963 
Q 2534 3019 2420 3045 
Q 2306 3072 2169 3072 
Q 1681 3072 1420 2755 
Q 1159 2438 1159 1844 
L 1159 0 
L 581 0 
L 581 3500 
L 1159 3500 
L 1159 2956 
Q 1341 3275 1631 3429 
Q 1922 3584 2338 3584 
Q 2397 3584 2469 3576 
Q 2541 3569 2628 3553 
L 2631 2963 
z
" transform="scale(0.015625)"/>
      <path id="DejaVuSans-67" d="M 2906 1791 
Q 2906 2416 2648 2759 
Q 2391 3103 1925 3103 
Q 1463 3103 1205 2759 
Q 947 2416 947 1791 
Q 947 1169 1205 825 
Q 1463 481 1925 481 
Q 2391 481 2648 825 
Q 2906 1169 2906 1791 
z
M 3481 434 
Q 3481 -459 3084 -895 
Q 2688 -1331 1869 -1331 
Q 1566 -1331 1297 -1286 
Q 1028 -1241 775 -1147 
L 775 -588 
Q 1028 -725 1275 -790 
Q 1522 -856 1778 -856 
Q 2344 -856 2625 -561 
Q 2906 -266 2906 331 
L 2906 616 
Q 2728 306 2450 153 
Q 2172 0 1784 0 
Q 1141 0 747 490 
Q 353 981 353 1791 
Q 353 2603 747 3093 
Q 1141 3584 1784 3584 
Q 2172 3584 2450 3431 
Q 2728 3278 2906 2969 
L 2906 3500 
L 3481 3500 
L 3481 434 
z
" transform="scale(0.015625)"/>
      <path id="DejaVuSans-2e" d="M 684 794 
L 1344 794 
L 1344 0 
L 684 0 
L 684 794 
z
" transform="scale(0.015625)"/>
      <path id="DejaVuSans-20" transform="scale(0.015625)"/>
     </defs>
     <use xlink:href="#DejaVuSans-4b"/>
     <use xlink:href="#DejaVuSans-6d" x="65.576172"/>
     <use xlink:href="#DejaVuSans-65" x="162.988281"/>
     <use xlink:href="#DejaVuSans-61" x="224.511719"/>
     <use xlink:href="#DejaVuSans-6e" x="285.791016"/>
     <use xlink:href="#DejaVuSans-73" x="349.169922"/>
     <use xlink:href="#DejaVuSans-5f" x="401.269531"/>
     <use xlink:href="#DejaVuSans-4b" x="451.269531"/>
     <use xlink:href="#DejaVuSans-37" x="516.845703"/>
     <use xlink:href="#DejaVuSans-5f" x="580.46875"/>
     <use xlink:href="#DejaVuSans-64" x="630.46875"/>
     <use xlink:href="#DejaVuSans-61" x="693.945312"/>
     <use xlink:href="#DejaVuSans-74" x="755.224609"/>
     <use xlink:href="#DejaVuSans-61" x="794.433594"/>
     <use xlink:href="#DejaVuSans-5f" x="855.712891"/>
     <use xlink:href="#DejaVuSans-56" x="905.712891"/>
     <use xlink:href="#DejaVuSans-31" x="974.121094"/>
     <use xlink:href="#DejaVuSans-5f" x="1037.744141"/>
     <use xlink:href="#DejaVuSans-30" x="1087.744141"/>
     <use xlink:href="#DejaVuSans-5f" x="1151.367188"/>
     <use xlink:href="#DejaVuSans-61" x="1201.367188"/>
     <use xlink:href="#DejaVuSans-76" x="1262.646484"/>
     <use xlink:href="#DejaVuSans-65" x="1321.826172"/>
     <use xlink:href="#DejaVuSans-72" x="1383.349609"/>
     <use xlink:href="#DejaVuSans-61" x="1424.462891"/>
     <use xlink:href="#DejaVuSans-67" x="1485.742188"/>
     <use xlink:href="#DejaVuSans-65" x="1549.21875"/>
     <use xlink:href="#DejaVuSans-2e" x="1610.742188"/>
     <use xlink:href="#DejaVuSans-20" x="1642.529297"/>
    </g>
    <!-- (Silh. Coef.: 0.16794941274783326)   -->
    <g transform="translate(485.980938 43.526625) scale(0.12 -0.12)">
     <defs>
      <path id="DejaVuSans-28" d="M 1984 4856 
Q 1566 4138 1362 3434 
Q 1159 2731 1159 2009 
Q 1159 1288 1364 580 
Q 1569 -128 1984 -844 
L 1484 -844 
Q 1016 -109 783 600 
Q 550 1309 550 2009 
Q 550 2706 781 3412 
Q 1013 4119 1484 4856 
L 1984 4856 
z
" transform="scale(0.015625)"/>
      <path id="DejaVuSans-53" d="M 3425 4513 
L 3425 3897 
Q 3066 4069 2747 4153 
Q 2428 4238 2131 4238 
Q 1616 4238 1336 4038 
Q 1056 3838 1056 3469 
Q 1056 3159 1242 3001 
Q 1428 2844 1947 2747 
L 2328 2669 
Q 3034 2534 3370 2195 
Q 3706 1856 3706 1288 
Q 3706 609 3251 259 
Q 2797 -91 1919 -91 
Q 1588 -91 1214 -16 
Q 841 59 441 206 
L 441 856 
Q 825 641 1194 531 
Q 1563 422 1919 422 
Q 2459 422 2753 634 
Q 3047 847 3047 1241 
Q 3047 1584 2836 1778 
Q 2625 1972 2144 2069 
L 1759 2144 
Q 1053 2284 737 2584 
Q 422 2884 422 3419 
Q 422 4038 858 4394 
Q 1294 4750 2059 4750 
Q 2388 4750 2728 4690 
Q 3069 4631 3425 4513 
z
" transform="scale(0.015625)"/>
      <path id="DejaVuSans-69" d="M 603 3500 
L 1178 3500 
L 1178 0 
L 603 0 
L 603 3500 
z
M 603 4863 
L 1178 4863 
L 1178 4134 
L 603 4134 
L 603 4863 
z
" transform="scale(0.015625)"/>
      <path id="DejaVuSans-6c" d="M 603 4863 
L 1178 4863 
L 1178 0 
L 603 0 
L 603 4863 
z
" transform="scale(0.015625)"/>
      <path id="DejaVuSans-68" d="M 3513 2113 
L 3513 0 
L 2938 0 
L 2938 2094 
Q 2938 2591 2744 2837 
Q 2550 3084 2163 3084 
Q 1697 3084 1428 2787 
Q 1159 2491 1159 1978 
L 1159 0 
L 581 0 
L 581 4863 
L 1159 4863 
L 1159 2956 
Q 1366 3272 1645 3428 
Q 1925 3584 2291 3584 
Q 2894 3584 3203 3211 
Q 3513 2838 3513 2113 
z
" transform="scale(0.015625)"/>
      <path id="DejaVuSans-43" d="M 4122 4306 
L 4122 3641 
Q 3803 3938 3442 4084 
Q 3081 4231 2675 4231 
Q 1875 4231 1450 3742 
Q 1025 3253 1025 2328 
Q 1025 1406 1450 917 
Q 1875 428 2675 428 
Q 3081 428 3442 575 
Q 3803 722 4122 1019 
L 4122 359 
Q 3791 134 3420 21 
Q 3050 -91 2638 -91 
Q 1578 -91 968 557 
Q 359 1206 359 2328 
Q 359 3453 968 4101 
Q 1578 4750 2638 4750 
Q 3056 4750 3426 4639 
Q 3797 4528 4122 4306 
z
" transform="scale(0.015625)"/>
      <path id="DejaVuSans-6f" d="M 1959 3097 
Q 1497 3097 1228 2736 
Q 959 2375 959 1747 
Q 959 1119 1226 758 
Q 1494 397 1959 397 
Q 2419 397 2687 759 
Q 2956 1122 2956 1747 
Q 2956 2369 2687 2733 
Q 2419 3097 1959 3097 
z
M 1959 3584 
Q 2709 3584 3137 3096 
Q 3566 2609 3566 1747 
Q 3566 888 3137 398 
Q 2709 -91 1959 -91 
Q 1206 -91 779 398 
Q 353 888 353 1747 
Q 353 2609 779 3096 
Q 1206 3584 1959 3584 
z
" transform="scale(0.015625)"/>
      <path id="DejaVuSans-66" d="M 2375 4863 
L 2375 4384 
L 1825 4384 
Q 1516 4384 1395 4259 
Q 1275 4134 1275 3809 
L 1275 3500 
L 2222 3500 
L 2222 3053 
L 1275 3053 
L 1275 0 
L 697 0 
L 697 3053 
L 147 3053 
L 147 3500 
L 697 3500 
L 697 3744 
Q 697 4328 969 4595 
Q 1241 4863 1831 4863 
L 2375 4863 
z
" transform="scale(0.015625)"/>
      <path id="DejaVuSans-3a" d="M 750 794 
L 1409 794 
L 1409 0 
L 750 0 
L 750 794 
z
M 750 3309 
L 1409 3309 
L 1409 2516 
L 750 2516 
L 750 3309 
z
" transform="scale(0.015625)"/>
      <path id="DejaVuSans-29" d="M 513 4856 
L 1013 4856 
Q 1481 4119 1714 3412 
Q 1947 2706 1947 2009 
Q 1947 1309 1714 600 
Q 1481 -109 1013 -844 
L 513 -844 
Q 928 -128 1133 580 
Q 1338 1288 1338 2009 
Q 1338 2731 1133 3434 
Q 928 4138 513 4856 
z
" transform="scale(0.015625)"/>
     </defs>
     <use xlink:href="#DejaVuSans-28"/>
     <use xlink:href="#DejaVuSans-53" x="39.013672"/>
     <use xlink:href="#DejaVuSans-69" x="102.490234"/>
     <use xlink:href="#DejaVuSans-6c" x="130.273438"/>
     <use xlink:href="#DejaVuSans-68" x="158.056641"/>
     <use xlink:href="#DejaVuSans-2e" x="221.435547"/>
     <use xlink:href="#DejaVuSans-20" x="253.222656"/>
     <use xlink:href="#DejaVuSans-43" x="285.009766"/>
     <use xlink:href="#DejaVuSans-6f" x="354.833984"/>
     <use xlink:href="#DejaVuSans-65" x="416.015625"/>
     <use xlink:href="#DejaVuSans-66" x="477.539062"/>
     <use xlink:href="#DejaVuSans-2e" x="505.494141"/>
     <use xlink:href="#DejaVuSans-3a" x="537.28125"/>
     <use xlink:href="#DejaVuSans-20" x="570.972656"/>
     <use xlink:href="#DejaVuSans-30" x="602.759766"/>
     <use xlink:href="#DejaVuSans-2e" x="666.382812"/>
     <use xlink:href="#DejaVuSans-31" x="698.169922"/>
     <use xlink:href="#DejaVuSans-36" x="761.792969"/>
     <use xlink:href="#DejaVuSans-37" x="825.416016"/>
     <use xlink:href="#DejaVuSans-39" x="889.039062"/>
     <use xlink:href="#DejaVuSans-34" x="952.662109"/>
     <use xlink:href="#DejaVuSans-39" x="1016.285156"/>
     <use xlink:href="#DejaVuSans-34" x="1079.908203"/>
     <use xlink:href="#DejaVuSans-31" x="1143.53125"/>
     <use xlink:href="#DejaVuSans-32" x="1207.154297"/>
     <use xlink:href="#DejaVuSans-37" x="1270.777344"/>
     <use xlink:href="#DejaVuSans-34" x="1334.400391"/>
     <use xlink:href="#DejaVuSans-37" x="1398.023438"/>
     <use xlink:href="#DejaVuSans-38" x="1461.646484"/>
     <use xlink:href="#DejaVuSans-33" x="1525.269531"/>
     <use xlink:href="#DejaVuSans-33" x="1588.892578"/>
     <use xlink:href="#DejaVuSans-32" x="1652.515625"/>
     <use xlink:href="#DejaVuSans-36" x="1716.138672"/>
     <use xlink:href="#DejaVuSans-29" x="1779.761719"/>
     <use xlink:href="#DejaVuSans-20" x="1818.775391"/>
     <use xlink:href="#DejaVuSans-20" x="1850.5625"/>
    </g>
    <!-- Distrib (0-&gt; 10.49%, 1-&gt; 3.72%, 2-&gt; 17.77%, 3-&gt; 15.91%, 4-&gt; 21.15%, 5-&gt; 12.86%, 6-&gt; 18.1%) -->
    <g transform="translate(306.81625 56.964) scale(0.12 -0.12)">
     <defs>
      <path id="DejaVuSans-44" d="M 1259 4147 
L 1259 519 
L 2022 519 
Q 2988 519 3436 956 
Q 3884 1394 3884 2338 
Q 3884 3275 3436 3711 
Q 2988 4147 2022 4147 
L 1259 4147 
z
M 628 4666 
L 1925 4666 
Q 3281 4666 3915 4102 
Q 4550 3538 4550 2338 
Q 4550 1131 3912 565 
Q 3275 0 1925 0 
L 628 0 
L 628 4666 
z
" transform="scale(0.015625)"/>
      <path id="DejaVuSans-62" d="M 3116 1747 
Q 3116 2381 2855 2742 
Q 2594 3103 2138 3103 
Q 1681 3103 1420 2742 
Q 1159 2381 1159 1747 
Q 1159 1113 1420 752 
Q 1681 391 2138 391 
Q 2594 391 2855 752 
Q 3116 1113 3116 1747 
z
M 1159 2969 
Q 1341 3281 1617 3432 
Q 1894 3584 2278 3584 
Q 2916 3584 3314 3078 
Q 3713 2572 3713 1747 
Q 3713 922 3314 415 
Q 2916 -91 2278 -91 
Q 1894 -91 1617 61 
Q 1341 213 1159 525 
L 1159 0 
L 581 0 
L 581 4863 
L 1159 4863 
L 1159 2969 
z
" transform="scale(0.015625)"/>
      <path id="DejaVuSans-3e" d="M 678 3150 
L 678 3719 
L 4684 2266 
L 4684 1747 
L 678 294 
L 678 863 
L 3897 2003 
L 678 3150 
z
" transform="scale(0.015625)"/>
      <path id="DejaVuSans-25" d="M 4653 2053 
Q 4381 2053 4226 1822 
Q 4072 1591 4072 1178 
Q 4072 772 4226 539 
Q 4381 306 4653 306 
Q 4919 306 5073 539 
Q 5228 772 5228 1178 
Q 5228 1588 5073 1820 
Q 4919 2053 4653 2053 
z
M 4653 2450 
Q 5147 2450 5437 2106 
Q 5728 1763 5728 1178 
Q 5728 594 5436 251 
Q 5144 -91 4653 -91 
Q 4153 -91 3862 251 
Q 3572 594 3572 1178 
Q 3572 1766 3864 2108 
Q 4156 2450 4653 2450 
z
M 1428 4353 
Q 1159 4353 1004 4120 
Q 850 3888 850 3481 
Q 850 3069 1003 2837 
Q 1156 2606 1428 2606 
Q 1700 2606 1854 2837 
Q 2009 3069 2009 3481 
Q 2009 3884 1853 4118 
Q 1697 4353 1428 4353 
z
M 4250 4750 
L 4750 4750 
L 1831 -91 
L 1331 -91 
L 4250 4750 
z
M 1428 4750 
Q 1922 4750 2215 4408 
Q 2509 4066 2509 3481 
Q 2509 2891 2217 2550 
Q 1925 2209 1428 2209 
Q 931 2209 642 2551 
Q 353 2894 353 3481 
Q 353 4063 643 4406 
Q 934 4750 1428 4750 
z
" transform="scale(0.015625)"/>
      <path id="DejaVuSans-2c" d="M 750 794 
L 1409 794 
L 1409 256 
L 897 -744 
L 494 -744 
L 750 256 
L 750 794 
z
" transform="scale(0.015625)"/>
     </defs>
     <use xlink:href="#DejaVuSans-44"/>
     <use xlink:href="#DejaVuSans-69" x="77.001953"/>
     <use xlink:href="#DejaVuSans-73" x="104.785156"/>
     <use xlink:href="#DejaVuSans-74" x="156.884766"/>
     <use xlink:href="#DejaVuSans-72" x="196.09375"/>
     <use xlink:href="#DejaVuSans-69" x="237.207031"/>
     <use xlink:href="#DejaVuSans-62" x="264.990234"/>
     <use xlink:href="#DejaVuSans-20" x="328.466797"/>
     <use xlink:href="#DejaVuSans-28" x="360.253906"/>
     <use xlink:href="#DejaVuSans-30" x="399.267578"/>
     <use xlink:href="#DejaVuSans-2d" x="462.890625"/>
     <use xlink:href="#DejaVuSans-3e" x="498.974609"/>
     <use xlink:href="#DejaVuSans-20" x="582.763672"/>
     <use xlink:href="#DejaVuSans-31" x="614.550781"/>
     <use xlink:href="#DejaVuSans-30" x="678.173828"/>
     <use xlink:href="#DejaVuSans-2e" x="741.796875"/>
     <use xlink:href="#DejaVuSans-34" x="773.583984"/>
     <use xlink:href="#DejaVuSans-39" x="837.207031"/>
     <use xlink:href="#DejaVuSans-25" x="900.830078"/>
     <use xlink:href="#DejaVuSans-2c" x="995.849609"/>
     <use xlink:href="#DejaVuSans-20" x="1027.636719"/>
     <use xlink:href="#DejaVuSans-31" x="1059.423828"/>
     <use xlink:href="#DejaVuSans-2d" x="1123.046875"/>
     <use xlink:href="#DejaVuSans-3e" x="1159.130859"/>
     <use xlink:href="#DejaVuSans-20" x="1242.919922"/>
     <use xlink:href="#DejaVuSans-33" x="1274.707031"/>
     <use xlink:href="#DejaVuSans-2e" x="1338.330078"/>
     <use xlink:href="#DejaVuSans-37" x="1370.117188"/>
     <use xlink:href="#DejaVuSans-32" x="1433.740234"/>
     <use xlink:href="#DejaVuSans-25" x="1497.363281"/>
     <use xlink:href="#DejaVuSans-2c" x="1592.382812"/>
     <use xlink:href="#DejaVuSans-20" x="1624.169922"/>
     <use xlink:href="#DejaVuSans-32" x="1655.957031"/>
     <use xlink:href="#DejaVuSans-2d" x="1719.580078"/>
     <use xlink:href="#DejaVuSans-3e" x="1755.664062"/>
     <use xlink:href="#DejaVuSans-20" x="1839.453125"/>
     <use xlink:href="#DejaVuSans-31" x="1871.240234"/>
     <use xlink:href="#DejaVuSans-37" x="1934.863281"/>
     <use xlink:href="#DejaVuSans-2e" x="1998.486328"/>
     <use xlink:href="#DejaVuSans-37" x="2030.273438"/>
     <use xlink:href="#DejaVuSans-37" x="2093.896484"/>
     <use xlink:href="#DejaVuSans-25" x="2157.519531"/>
     <use xlink:href="#DejaVuSans-2c" x="2252.539062"/>
     <use xlink:href="#DejaVuSans-20" x="2284.326172"/>
     <use xlink:href="#DejaVuSans-33" x="2316.113281"/>
     <use xlink:href="#DejaVuSans-2d" x="2379.736328"/>
     <use xlink:href="#DejaVuSans-3e" x="2415.820312"/>
     <use xlink:href="#DejaVuSans-20" x="2499.609375"/>
     <use xlink:href="#DejaVuSans-31" x="2531.396484"/>
     <use xlink:href="#DejaVuSans-35" x="2595.019531"/>
     <use xlink:href="#DejaVuSans-2e" x="2658.642578"/>
     <use xlink:href="#DejaVuSans-39" x="2690.429688"/>
     <use xlink:href="#DejaVuSans-31" x="2754.052734"/>
     <use xlink:href="#DejaVuSans-25" x="2817.675781"/>
     <use xlink:href="#DejaVuSans-2c" x="2912.695312"/>
     <use xlink:href="#DejaVuSans-20" x="2944.482422"/>
     <use xlink:href="#DejaVuSans-34" x="2976.269531"/>
     <use xlink:href="#DejaVuSans-2d" x="3039.892578"/>
     <use xlink:href="#DejaVuSans-3e" x="3075.976562"/>
     <use xlink:href="#DejaVuSans-20" x="3159.765625"/>
     <use xlink:href="#DejaVuSans-32" x="3191.552734"/>
     <use xlink:href="#DejaVuSans-31" x="3255.175781"/>
     <use xlink:href="#DejaVuSans-2e" x="3318.798828"/>
     <use xlink:href="#DejaVuSans-31" x="3350.585938"/>
     <use xlink:href="#DejaVuSans-35" x="3414.208984"/>
     <use xlink:href="#DejaVuSans-25" x="3477.832031"/>
     <use xlink:href="#DejaVuSans-2c" x="3572.851562"/>
     <use xlink:href="#DejaVuSans-20" x="3604.638672"/>
     <use xlink:href="#DejaVuSans-35" x="3636.425781"/>
     <use xlink:href="#DejaVuSans-2d" x="3700.048828"/>
     <use xlink:href="#DejaVuSans-3e" x="3736.132812"/>
     <use xlink:href="#DejaVuSans-20" x="3819.921875"/>
     <use xlink:href="#DejaVuSans-31" x="3851.708984"/>
     <use xlink:href="#DejaVuSans-32" x="3915.332031"/>
     <use xlink:href="#DejaVuSans-2e" x="3978.955078"/>
     <use xlink:href="#DejaVuSans-38" x="4010.742188"/>
     <use xlink:href="#DejaVuSans-36" x="4074.365234"/>
     <use xlink:href="#DejaVuSans-25" x="4137.988281"/>
     <use xlink:href="#DejaVuSans-2c" x="4233.007812"/>
     <use xlink:href="#DejaVuSans-20" x="4264.794922"/>
     <use xlink:href="#DejaVuSans-36" x="4296.582031"/>
     <use xlink:href="#DejaVuSans-2d" x="4360.205078"/>
     <use xlink:href="#DejaVuSans-3e" x="4396.289062"/>
     <use xlink:href="#DejaVuSans-20" x="4480.078125"/>
     <use xlink:href="#DejaVuSans-31" x="4511.865234"/>
     <use xlink:href="#DejaVuSans-38" x="4575.488281"/>
     <use xlink:href="#DejaVuSans-2e" x="4639.111328"/>
     <use xlink:href="#DejaVuSans-31" x="4670.898438"/>
     <use xlink:href="#DejaVuSans-25" x="4734.521484"/>
     <use xlink:href="#DejaVuSans-29" x="4829.541016"/>
    </g>
   </g>
   <g id="legend_1">
    <g id="patch_42">
     <path d="M 47.9225 144.354625 
L 185.030313 144.354625 
Q 187.030313 144.354625 187.030313 142.354625 
L 187.030313 69.964 
Q 187.030313 67.964 185.030313 67.964 
L 47.9225 67.964 
Q 45.9225 67.964 45.9225 69.964 
L 45.9225 142.354625 
Q 45.9225 144.354625 47.9225 144.354625 
z
" style="fill: #ffffff; opacity: 0.8; stroke: #cccccc; stroke-linejoin: miter"/>
    </g>
    <g id="patch_43">
     <path d="M 49.9225 79.562438 
L 69.9225 79.562438 
L 69.9225 72.562438 
L 49.9225 72.562438 
z
" style="fill: #1f77b4"/>
    </g>
    <g id="text_19">
     <!-- 0000 - 0600 Average -->
     <g transform="translate(77.9225 79.562438) scale(0.1 -0.1)">
      <defs>
       <path id="DejaVuSans-41" d="M 2188 4044 
L 1331 1722 
L 3047 1722 
L 2188 4044 
z
M 1831 4666 
L 2547 4666 
L 4325 0 
L 3669 0 
L 3244 1197 
L 1141 1197 
L 716 0 
L 50 0 
L 1831 4666 
z
" transform="scale(0.015625)"/>
      </defs>
      <use xlink:href="#DejaVuSans-30"/>
      <use xlink:href="#DejaVuSans-30" x="63.623047"/>
      <use xlink:href="#DejaVuSans-30" x="127.246094"/>
      <use xlink:href="#DejaVuSans-30" x="190.869141"/>
      <use xlink:href="#DejaVuSans-20" x="254.492188"/>
      <use xlink:href="#DejaVuSans-2d" x="286.279297"/>
      <use xlink:href="#DejaVuSans-20" x="322.363281"/>
      <use xlink:href="#DejaVuSans-30" x="354.150391"/>
      <use xlink:href="#DejaVuSans-36" x="417.773438"/>
      <use xlink:href="#DejaVuSans-30" x="481.396484"/>
      <use xlink:href="#DejaVuSans-30" x="545.019531"/>
      <use xlink:href="#DejaVuSans-20" x="608.642578"/>
      <use xlink:href="#DejaVuSans-41" x="640.429688"/>
      <use xlink:href="#DejaVuSans-76" x="702.962891"/>
      <use xlink:href="#DejaVuSans-65" x="762.142578"/>
      <use xlink:href="#DejaVuSans-72" x="823.666016"/>
      <use xlink:href="#DejaVuSans-61" x="864.779297"/>
      <use xlink:href="#DejaVuSans-67" x="926.058594"/>
      <use xlink:href="#DejaVuSans-65" x="989.535156"/>
     </g>
    </g>
    <g id="patch_44">
     <path d="M 49.9225 94.240563 
L 69.9225 94.240563 
L 69.9225 87.240563 
L 49.9225 87.240563 
z
" style="fill: #ff7f0e"/>
    </g>
    <g id="text_20">
     <!-- 0600 - 1300 Average -->
     <g transform="translate(77.9225 94.240563) scale(0.1 -0.1)">
      <use xlink:href="#DejaVuSans-30"/>
      <use xlink:href="#DejaVuSans-36" x="63.623047"/>
      <use xlink:href="#DejaVuSans-30" x="127.246094"/>
      <use xlink:href="#DejaVuSans-30" x="190.869141"/>
      <use xlink:href="#DejaVuSans-20" x="254.492188"/>
      <use xlink:href="#DejaVuSans-2d" x="286.279297"/>
      <use xlink:href="#DejaVuSans-20" x="322.363281"/>
      <use xlink:href="#DejaVuSans-31" x="354.150391"/>
      <use xlink:href="#DejaVuSans-33" x="417.773438"/>
      <use xlink:href="#DejaVuSans-30" x="481.396484"/>
      <use xlink:href="#DejaVuSans-30" x="545.019531"/>
      <use xlink:href="#DejaVuSans-20" x="608.642578"/>
      <use xlink:href="#DejaVuSans-41" x="640.429688"/>
      <use xlink:href="#DejaVuSans-76" x="702.962891"/>
      <use xlink:href="#DejaVuSans-65" x="762.142578"/>
      <use xlink:href="#DejaVuSans-72" x="823.666016"/>
      <use xlink:href="#DejaVuSans-61" x="864.779297"/>
      <use xlink:href="#DejaVuSans-67" x="926.058594"/>
      <use xlink:href="#DejaVuSans-65" x="989.535156"/>
     </g>
    </g>
    <g id="patch_45">
     <path d="M 49.9225 108.918688 
L 69.9225 108.918688 
L 69.9225 101.918688 
L 49.9225 101.918688 
z
" style="fill: #2ca02c"/>
    </g>
    <g id="text_21">
     <!-- 1300 - 1600 Average -->
     <g transform="translate(77.9225 108.918688) scale(0.1 -0.1)">
      <use xlink:href="#DejaVuSans-31"/>
      <use xlink:href="#DejaVuSans-33" x="63.623047"/>
      <use xlink:href="#DejaVuSans-30" x="127.246094"/>
      <use xlink:href="#DejaVuSans-30" x="190.869141"/>
      <use xlink:href="#DejaVuSans-20" x="254.492188"/>
      <use xlink:href="#DejaVuSans-2d" x="286.279297"/>
      <use xlink:href="#DejaVuSans-20" x="322.363281"/>
      <use xlink:href="#DejaVuSans-31" x="354.150391"/>
      <use xlink:href="#DejaVuSans-36" x="417.773438"/>
      <use xlink:href="#DejaVuSans-30" x="481.396484"/>
      <use xlink:href="#DejaVuSans-30" x="545.019531"/>
      <use xlink:href="#DejaVuSans-20" x="608.642578"/>
      <use xlink:href="#DejaVuSans-41" x="640.429688"/>
      <use xlink:href="#DejaVuSans-76" x="702.962891"/>
      <use xlink:href="#DejaVuSans-65" x="762.142578"/>
      <use xlink:href="#DejaVuSans-72" x="823.666016"/>
      <use xlink:href="#DejaVuSans-61" x="864.779297"/>
      <use xlink:href="#DejaVuSans-67" x="926.058594"/>
      <use xlink:href="#DejaVuSans-65" x="989.535156"/>
     </g>
    </g>
    <g id="patch_46">
     <path d="M 49.9225 123.596813 
L 69.9225 123.596813 
L 69.9225 116.596813 
L 49.9225 116.596813 
z
" style="fill: #d62728"/>
    </g>
    <g id="text_22">
     <!-- 1600 - 2000 Average -->
     <g transform="translate(77.9225 123.596813) scale(0.1 -0.1)">
      <use xlink:href="#DejaVuSans-31"/>
      <use xlink:href="#DejaVuSans-36" x="63.623047"/>
      <use xlink:href="#DejaVuSans-30" x="127.246094"/>
      <use xlink:href="#DejaVuSans-30" x="190.869141"/>
      <use xlink:href="#DejaVuSans-20" x="254.492188"/>
      <use xlink:href="#DejaVuSans-2d" x="286.279297"/>
      <use xlink:href="#DejaVuSans-20" x="322.363281"/>
      <use xlink:href="#DejaVuSans-32" x="354.150391"/>
      <use xlink:href="#DejaVuSans-30" x="417.773438"/>
      <use xlink:href="#DejaVuSans-30" x="481.396484"/>
      <use xlink:href="#DejaVuSans-30" x="545.019531"/>
      <use xlink:href="#DejaVuSans-20" x="608.642578"/>
      <use xlink:href="#DejaVuSans-41" x="640.429688"/>
      <use xlink:href="#DejaVuSans-76" x="702.962891"/>
      <use xlink:href="#DejaVuSans-65" x="762.142578"/>
      <use xlink:href="#DejaVuSans-72" x="823.666016"/>
      <use xlink:href="#DejaVuSans-61" x="864.779297"/>
      <use xlink:href="#DejaVuSans-67" x="926.058594"/>
      <use xlink:href="#DejaVuSans-65" x="989.535156"/>
     </g>
    </g>
    <g id="patch_47">
     <path d="M 49.9225 138.274938 
L 69.9225 138.274938 
L 69.9225 131.274938 
L 49.9225 131.274938 
z
" style="fill: #9467bd"/>
    </g>
    <g id="text_23">
     <!-- 2000 - 2400 Average -->
     <g transform="translate(77.9225 138.274938) scale(0.1 -0.1)">
      <use xlink:href="#DejaVuSans-32"/>
      <use xlink:href="#DejaVuSans-30" x="63.623047"/>
      <use xlink:href="#DejaVuSans-30" x="127.246094"/>
      <use xlink:href="#DejaVuSans-30" x="190.869141"/>
      <use xlink:href="#DejaVuSans-20" x="254.492188"/>
      <use xlink:href="#DejaVuSans-2d" x="286.279297"/>
      <use xlink:href="#DejaVuSans-20" x="322.363281"/>
      <use xlink:href="#DejaVuSans-32" x="354.150391"/>
      <use xlink:href="#DejaVuSans-34" x="417.773438"/>
      <use xlink:href="#DejaVuSans-30" x="481.396484"/>
      <use xlink:href="#DejaVuSans-30" x="545.019531"/>
      <use xlink:href="#DejaVuSans-20" x="608.642578"/>
      <use xlink:href="#DejaVuSans-41" x="640.429688"/>
      <use xlink:href="#DejaVuSans-76" x="702.962891"/>
      <use xlink:href="#DejaVuSans-65" x="762.142578"/>
      <use xlink:href="#DejaVuSans-72" x="823.666016"/>
      <use xlink:href="#DejaVuSans-61" x="864.779297"/>
      <use xlink:href="#DejaVuSans-67" x="926.058594"/>
      <use xlink:href="#DejaVuSans-65" x="989.535156"/>
     </g>
    </g>
   </g>
  </g>
 </g>
 <defs>
  <clipPath id="p2159e022de">
   <rect x="40.9225" y="62.964" width="1116" height="277.2"/>
  </clipPath>
 </defs>
</svg>
