<?xml version="1.0" encoding="utf-8" standalone="no"?>
<!DOCTYPE svg PUBLIC "-//W3C//DTD SVG 1.1//EN"
  "http://www.w3.org/Graphics/SVG/1.1/DTD/svg11.dtd">
<svg xmlns:xlink="http://www.w3.org/1999/xlink" width="1176.528125pt" height="325.755469pt" viewBox="0 0 1176.528125 325.755469" xmlns="http://www.w3.org/2000/svg" version="1.1">
 <metadata>
  <rdf:RDF xmlns:dc="http://purl.org/dc/elements/1.1/" xmlns:cc="http://creativecommons.org/ns#" xmlns:rdf="http://www.w3.org/1999/02/22-rdf-syntax-ns#">
   <cc:Work>
    <dc:type rdf:resource="http://purl.org/dc/dcmitype/StillImage"/>
    <dc:date>2024-09-22T20:11:17.116177</dc:date>
    <dc:format>image/svg+xml</dc:format>
    <dc:creator>
     <cc:Agent>
      <dc:title>Matplotlib v3.9.0, https://matplotlib.org/</dc:title>
     </cc:Agent>
    </dc:creator>
   </cc:Work>
  </rdf:RDF>
 </metadata>
 <defs>
  <style type="text/css">*{stroke-linejoin: round; stroke-linecap: butt}</style>
 </defs>
 <g id="figure_1">
  <g id="patch_1">
   <path d="M 0 325.755469 
L 1176.528125 325.755469 
L 1176.528125 0 
L 0 0 
z
" style="fill: #ffffff"/>
  </g>
  <g id="axes_1">
   <g id="patch_2">
    <path d="M 53.328125 288.199219 
L 1169.328125 288.199219 
L 1169.328125 10.999219 
L 53.328125 10.999219 
z
" style="fill: #ffffff"/>
   </g>
   <g id="patch_3">
    <path d="M 99.828125 288.199219 
L 118.428125 288.199219 
L 118.428125 126.770644 
L 99.828125 126.770644 
z
" clip-path="url(#p9a539373c4)" style="fill: #1f77b4"/>
   </g>
   <g id="patch_4">
    <path d="M 285.828125 288.199219 
L 304.428125 288.199219 
L 304.428125 256.563281 
L 285.828125 256.563281 
z
" clip-path="url(#p9a539373c4)" style="fill: #1f77b4"/>
   </g>
   <g id="patch_5">
    <path d="M 471.828125 288.199219 
L 490.428125 288.199219 
L 490.428125 66.802857 
L 471.828125 66.802857 
z
" clip-path="url(#p9a539373c4)" style="fill: #1f77b4"/>
   </g>
   <g id="patch_6">
    <path d="M 657.828125 288.199219 
L 676.428125 288.199219 
L 676.428125 146.192341 
L 657.828125 146.192341 
z
" clip-path="url(#p9a539373c4)" style="fill: #1f77b4"/>
   </g>
   <g id="patch_7">
    <path d="M 843.828125 288.199219 
L 862.428125 288.199219 
L 862.428125 209.48345 
L 843.828125 209.48345 
z
" clip-path="url(#p9a539373c4)" style="fill: #1f77b4"/>
   </g>
   <g id="patch_8">
    <path d="M 1029.828125 288.199219 
L 1048.428125 288.199219 
L 1048.428125 175.033733 
L 1029.828125 175.033733 
z
" clip-path="url(#p9a539373c4)" style="fill: #1f77b4"/>
   </g>
   <g id="patch_9">
    <path d="M 118.428125 288.199219 
L 137.028125 288.199219 
L 137.028125 100.503377 
L 118.428125 100.503377 
z
" clip-path="url(#p9a539373c4)" style="fill: #ff7f0e"/>
   </g>
   <g id="patch_10">
    <path d="M 304.428125 288.199219 
L 323.028125 288.199219 
L 323.028125 248.144469 
L 304.428125 248.144469 
z
" clip-path="url(#p9a539373c4)" style="fill: #ff7f0e"/>
   </g>
   <g id="patch_11">
    <path d="M 490.428125 288.199219 
L 509.028125 288.199219 
L 509.028125 22.592066 
L 490.428125 22.592066 
z
" clip-path="url(#p9a539373c4)" style="fill: #ff7f0e"/>
   </g>
   <g id="patch_12">
    <path d="M 676.428125 288.199219 
L 695.028125 288.199219 
L 695.028125 112.739567 
L 676.428125 112.739567 
z
" clip-path="url(#p9a539373c4)" style="fill: #ff7f0e"/>
   </g>
   <g id="patch_13">
    <path d="M 862.428125 288.199219 
L 881.028125 288.199219 
L 881.028125 193.759471 
L 862.428125 193.759471 
z
" clip-path="url(#p9a539373c4)" style="fill: #ff7f0e"/>
   </g>
   <g id="patch_14">
    <path d="M 1048.428125 288.199219 
L 1067.028125 288.199219 
L 1067.028125 159.560976 
L 1048.428125 159.560976 
z
" clip-path="url(#p9a539373c4)" style="fill: #ff7f0e"/>
   </g>
   <g id="patch_15">
    <path d="M 137.028125 288.199219 
L 155.628125 288.199219 
L 155.628125 216.425594 
L 137.028125 216.425594 
z
" clip-path="url(#p9a539373c4)" style="fill: #2ca02c"/>
   </g>
   <g id="patch_16">
    <path d="M 323.028125 288.199219 
L 341.628125 288.199219 
L 341.628125 273.763996 
L 323.028125 273.763996 
z
" clip-path="url(#p9a539373c4)" style="fill: #2ca02c"/>
   </g>
   <g id="patch_17">
    <path d="M 509.028125 288.199219 
L 527.628125 288.199219 
L 527.628125 174.359438 
L 509.028125 174.359438 
z
" clip-path="url(#p9a539373c4)" style="fill: #2ca02c"/>
   </g>
   <g id="patch_18">
    <path d="M 695.028125 288.199219 
L 713.628125 288.199219 
L 713.628125 214.108825 
L 695.028125 214.108825 
z
" clip-path="url(#p9a539373c4)" style="fill: #2ca02c"/>
   </g>
   <g id="patch_19">
    <path d="M 881.028125 288.199219 
L 899.628125 288.199219 
L 899.628125 254.055335 
L 881.028125 254.055335 
z
" clip-path="url(#p9a539373c4)" style="fill: #2ca02c"/>
   </g>
   <g id="patch_20">
    <path d="M 1067.028125 288.199219 
L 1085.628125 288.199219 
L 1085.628125 232.603176 
L 1067.028125 232.603176 
z
" clip-path="url(#p9a539373c4)" style="fill: #2ca02c"/>
   </g>
   <g id="patch_21">
    <path d="M 155.628125 288.199219 
L 174.228125 288.199219 
L 174.228125 181.645335 
L 155.628125 181.645335 
z
" clip-path="url(#p9a539373c4)" style="fill: #d62728"/>
   </g>
   <g id="patch_22">
    <path d="M 341.628125 288.199219 
L 360.228125 288.199219 
L 360.228125 261.217768 
L 341.628125 261.217768 
z
" clip-path="url(#p9a539373c4)" style="fill: #d62728"/>
   </g>
   <g id="patch_23">
    <path d="M 527.628125 288.199219 
L 546.228125 288.199219 
L 546.228125 124.065149 
L 527.628125 124.065149 
z
" clip-path="url(#p9a539373c4)" style="fill: #d62728"/>
   </g>
   <g id="patch_24">
    <path d="M 713.628125 288.199219 
L 732.228125 288.199219 
L 732.228125 175.972464 
L 713.628125 175.972464 
z
" clip-path="url(#p9a539373c4)" style="fill: #d62728"/>
   </g>
   <g id="patch_25">
    <path d="M 899.628125 288.199219 
L 918.228125 288.199219 
L 918.228125 231.389545 
L 899.628125 231.389545 
z
" clip-path="url(#p9a539373c4)" style="fill: #d62728"/>
   </g>
   <g id="patch_26">
    <path d="M 1085.628125 288.199219 
L 1104.228125 288.199219 
L 1104.228125 199.035576 
L 1085.628125 199.035576 
z
" clip-path="url(#p9a539373c4)" style="fill: #d62728"/>
   </g>
   <g id="patch_27">
    <path d="M 174.228125 288.199219 
L 192.828125 288.199219 
L 192.828125 185.263052 
L 174.228125 185.263052 
z
" clip-path="url(#p9a539373c4)" style="fill: #9467bd"/>
   </g>
   <g id="patch_28">
    <path d="M 360.228125 288.199219 
L 378.828125 288.199219 
L 378.828125 263.487424 
L 360.228125 263.487424 
z
" clip-path="url(#p9a539373c4)" style="fill: #9467bd"/>
   </g>
   <g id="patch_29">
    <path d="M 546.228125 288.199219 
L 564.828125 288.199219 
L 564.828125 129.34797 
L 546.228125 129.34797 
z
" clip-path="url(#p9a539373c4)" style="fill: #9467bd"/>
   </g>
   <g id="patch_30">
    <path d="M 732.228125 288.199219 
L 750.828125 288.199219 
L 750.828125 179.63518 
L 732.228125 179.63518 
z
" clip-path="url(#p9a539373c4)" style="fill: #9467bd"/>
   </g>
   <g id="patch_31">
    <path d="M 918.228125 288.199219 
L 936.828125 288.199219 
L 936.828125 237.975998 
L 918.228125 237.975998 
z
" clip-path="url(#p9a539373c4)" style="fill: #9467bd"/>
   </g>
   <g id="patch_32">
    <path d="M 1104.228125 288.199219 
L 1122.828125 288.199219 
L 1122.828125 201.998976 
L 1104.228125 201.998976 
z
" clip-path="url(#p9a539373c4)" style="fill: #9467bd"/>
   </g>
   <g id="matplotlib.axis_1">
    <g id="xtick_1">
     <g id="line2d_1">
      <defs>
       <path id="m07d2fd1bf5" d="M 0 0 
L 0 3.5 
" style="stroke: #000000; stroke-width: 0.8"/>
      </defs>
      <g>
       <use xlink:href="#m07d2fd1bf5" x="146.328125" y="288.199219" style="stroke: #000000; stroke-width: 0.8"/>
      </g>
     </g>
     <g id="text_1">
      <!-- 0 -->
      <g transform="translate(143.146875 302.797656) scale(0.1 -0.1)">
       <defs>
        <path id="DejaVuSans-30" d="M 2034 4250 
Q 1547 4250 1301 3770 
Q 1056 3291 1056 2328 
Q 1056 1369 1301 889 
Q 1547 409 2034 409 
Q 2525 409 2770 889 
Q 3016 1369 3016 2328 
Q 3016 3291 2770 3770 
Q 2525 4250 2034 4250 
z
M 2034 4750 
Q 2819 4750 3233 4129 
Q 3647 3509 3647 2328 
Q 3647 1150 3233 529 
Q 2819 -91 2034 -91 
Q 1250 -91 836 529 
Q 422 1150 422 2328 
Q 422 3509 836 4129 
Q 1250 4750 2034 4750 
z
" transform="scale(0.015625)"/>
       </defs>
       <use xlink:href="#DejaVuSans-30"/>
      </g>
     </g>
    </g>
    <g id="xtick_2">
     <g id="line2d_2">
      <g>
       <use xlink:href="#m07d2fd1bf5" x="332.328125" y="288.199219" style="stroke: #000000; stroke-width: 0.8"/>
      </g>
     </g>
     <g id="text_2">
      <!-- 1 -->
      <g transform="translate(329.146875 302.797656) scale(0.1 -0.1)">
       <defs>
        <path id="DejaVuSans-31" d="M 794 531 
L 1825 531 
L 1825 4091 
L 703 3866 
L 703 4441 
L 1819 4666 
L 2450 4666 
L 2450 531 
L 3481 531 
L 3481 0 
L 794 0 
L 794 531 
z
" transform="scale(0.015625)"/>
       </defs>
       <use xlink:href="#DejaVuSans-31"/>
      </g>
     </g>
    </g>
    <g id="xtick_3">
     <g id="line2d_3">
      <g>
       <use xlink:href="#m07d2fd1bf5" x="518.328125" y="288.199219" style="stroke: #000000; stroke-width: 0.8"/>
      </g>
     </g>
     <g id="text_3">
      <!-- 2 -->
      <g transform="translate(515.146875 302.797656) scale(0.1 -0.1)">
       <defs>
        <path id="DejaVuSans-32" d="M 1228 531 
L 3431 531 
L 3431 0 
L 469 0 
L 469 531 
Q 828 903 1448 1529 
Q 2069 2156 2228 2338 
Q 2531 2678 2651 2914 
Q 2772 3150 2772 3378 
Q 2772 3750 2511 3984 
Q 2250 4219 1831 4219 
Q 1534 4219 1204 4116 
Q 875 4013 500 3803 
L 500 4441 
Q 881 4594 1212 4672 
Q 1544 4750 1819 4750 
Q 2544 4750 2975 4387 
Q 3406 4025 3406 3419 
Q 3406 3131 3298 2873 
Q 3191 2616 2906 2266 
Q 2828 2175 2409 1742 
Q 1991 1309 1228 531 
z
" transform="scale(0.015625)"/>
       </defs>
       <use xlink:href="#DejaVuSans-32"/>
      </g>
     </g>
    </g>
    <g id="xtick_4">
     <g id="line2d_4">
      <g>
       <use xlink:href="#m07d2fd1bf5" x="704.328125" y="288.199219" style="stroke: #000000; stroke-width: 0.8"/>
      </g>
     </g>
     <g id="text_4">
      <!-- 3 -->
      <g transform="translate(701.146875 302.797656) scale(0.1 -0.1)">
       <defs>
        <path id="DejaVuSans-33" d="M 2597 2516 
Q 3050 2419 3304 2112 
Q 3559 1806 3559 1356 
Q 3559 666 3084 287 
Q 2609 -91 1734 -91 
Q 1441 -91 1130 -33 
Q 819 25 488 141 
L 488 750 
Q 750 597 1062 519 
Q 1375 441 1716 441 
Q 2309 441 2620 675 
Q 2931 909 2931 1356 
Q 2931 1769 2642 2001 
Q 2353 2234 1838 2234 
L 1294 2234 
L 1294 2753 
L 1863 2753 
Q 2328 2753 2575 2939 
Q 2822 3125 2822 3475 
Q 2822 3834 2567 4026 
Q 2313 4219 1838 4219 
Q 1578 4219 1281 4162 
Q 984 4106 628 3988 
L 628 4550 
Q 988 4650 1302 4700 
Q 1616 4750 1894 4750 
Q 2613 4750 3031 4423 
Q 3450 4097 3450 3541 
Q 3450 3153 3228 2886 
Q 3006 2619 2597 2516 
z
" transform="scale(0.015625)"/>
       </defs>
       <use xlink:href="#DejaVuSans-33"/>
      </g>
     </g>
    </g>
    <g id="xtick_5">
     <g id="line2d_5">
      <g>
       <use xlink:href="#m07d2fd1bf5" x="890.328125" y="288.199219" style="stroke: #000000; stroke-width: 0.8"/>
      </g>
     </g>
     <g id="text_5">
      <!-- 4 -->
      <g transform="translate(887.146875 302.797656) scale(0.1 -0.1)">
       <defs>
        <path id="DejaVuSans-34" d="M 2419 4116 
L 825 1625 
L 2419 1625 
L 2419 4116 
z
M 2253 4666 
L 3047 4666 
L 3047 1625 
L 3713 1625 
L 3713 1100 
L 3047 1100 
L 3047 0 
L 2419 0 
L 2419 1100 
L 313 1100 
L 313 1709 
L 2253 4666 
z
" transform="scale(0.015625)"/>
       </defs>
       <use xlink:href="#DejaVuSans-34"/>
      </g>
     </g>
    </g>
    <g id="xtick_6">
     <g id="line2d_6">
      <g>
       <use xlink:href="#m07d2fd1bf5" x="1076.328125" y="288.199219" style="stroke: #000000; stroke-width: 0.8"/>
      </g>
     </g>
     <g id="text_6">
      <!-- 5 -->
      <g transform="translate(1073.146875 302.797656) scale(0.1 -0.1)">
       <defs>
        <path id="DejaVuSans-35" d="M 691 4666 
L 3169 4666 
L 3169 4134 
L 1269 4134 
L 1269 2991 
Q 1406 3038 1543 3061 
Q 1681 3084 1819 3084 
Q 2600 3084 3056 2656 
Q 3513 2228 3513 1497 
Q 3513 744 3044 326 
Q 2575 -91 1722 -91 
Q 1428 -91 1123 -41 
Q 819 9 494 109 
L 494 744 
Q 775 591 1075 516 
Q 1375 441 1709 441 
Q 2250 441 2565 725 
Q 2881 1009 2881 1497 
Q 2881 1984 2565 2268 
Q 2250 2553 1709 2553 
Q 1456 2553 1204 2497 
Q 953 2441 691 2322 
L 691 4666 
z
" transform="scale(0.015625)"/>
       </defs>
       <use xlink:href="#DejaVuSans-35"/>
      </g>
     </g>
    </g>
    <g id="text_7">
     <!-- Cluster -->
     <g transform="translate(593.582031 316.475781) scale(0.1 -0.1)">
      <defs>
       <path id="DejaVuSans-43" d="M 4122 4306 
L 4122 3641 
Q 3803 3938 3442 4084 
Q 3081 4231 2675 4231 
Q 1875 4231 1450 3742 
Q 1025 3253 1025 2328 
Q 1025 1406 1450 917 
Q 1875 428 2675 428 
Q 3081 428 3442 575 
Q 3803 722 4122 1019 
L 4122 359 
Q 3791 134 3420 21 
Q 3050 -91 2638 -91 
Q 1578 -91 968 557 
Q 359 1206 359 2328 
Q 359 3453 968 4101 
Q 1578 4750 2638 4750 
Q 3056 4750 3426 4639 
Q 3797 4528 4122 4306 
z
" transform="scale(0.015625)"/>
       <path id="DejaVuSans-6c" d="M 603 4863 
L 1178 4863 
L 1178 0 
L 603 0 
L 603 4863 
z
" transform="scale(0.015625)"/>
       <path id="DejaVuSans-75" d="M 544 1381 
L 544 3500 
L 1119 3500 
L 1119 1403 
Q 1119 906 1312 657 
Q 1506 409 1894 409 
Q 2359 409 2629 706 
Q 2900 1003 2900 1516 
L 2900 3500 
L 3475 3500 
L 3475 0 
L 2900 0 
L 2900 538 
Q 2691 219 2414 64 
Q 2138 -91 1772 -91 
Q 1169 -91 856 284 
Q 544 659 544 1381 
z
M 1991 3584 
L 1991 3584 
z
" transform="scale(0.015625)"/>
       <path id="DejaVuSans-73" d="M 2834 3397 
L 2834 2853 
Q 2591 2978 2328 3040 
Q 2066 3103 1784 3103 
Q 1356 3103 1142 2972 
Q 928 2841 928 2578 
Q 928 2378 1081 2264 
Q 1234 2150 1697 2047 
L 1894 2003 
Q 2506 1872 2764 1633 
Q 3022 1394 3022 966 
Q 3022 478 2636 193 
Q 2250 -91 1575 -91 
Q 1294 -91 989 -36 
Q 684 19 347 128 
L 347 722 
Q 666 556 975 473 
Q 1284 391 1588 391 
Q 1994 391 2212 530 
Q 2431 669 2431 922 
Q 2431 1156 2273 1281 
Q 2116 1406 1581 1522 
L 1381 1569 
Q 847 1681 609 1914 
Q 372 2147 372 2553 
Q 372 3047 722 3315 
Q 1072 3584 1716 3584 
Q 2034 3584 2315 3537 
Q 2597 3491 2834 3397 
z
" transform="scale(0.015625)"/>
       <path id="DejaVuSans-74" d="M 1172 4494 
L 1172 3500 
L 2356 3500 
L 2356 3053 
L 1172 3053 
L 1172 1153 
Q 1172 725 1289 603 
Q 1406 481 1766 481 
L 2356 481 
L 2356 0 
L 1766 0 
Q 1100 0 847 248 
Q 594 497 594 1153 
L 594 3053 
L 172 3053 
L 172 3500 
L 594 3500 
L 594 4494 
L 1172 4494 
z
" transform="scale(0.015625)"/>
       <path id="DejaVuSans-65" d="M 3597 1894 
L 3597 1613 
L 953 1613 
Q 991 1019 1311 708 
Q 1631 397 2203 397 
Q 2534 397 2845 478 
Q 3156 559 3463 722 
L 3463 178 
Q 3153 47 2828 -22 
Q 2503 -91 2169 -91 
Q 1331 -91 842 396 
Q 353 884 353 1716 
Q 353 2575 817 3079 
Q 1281 3584 2069 3584 
Q 2775 3584 3186 3129 
Q 3597 2675 3597 1894 
z
M 3022 2063 
Q 3016 2534 2758 2815 
Q 2500 3097 2075 3097 
Q 1594 3097 1305 2825 
Q 1016 2553 972 2059 
L 3022 2063 
z
" transform="scale(0.015625)"/>
       <path id="DejaVuSans-72" d="M 2631 2963 
Q 2534 3019 2420 3045 
Q 2306 3072 2169 3072 
Q 1681 3072 1420 2755 
Q 1159 2438 1159 1844 
L 1159 0 
L 581 0 
L 581 3500 
L 1159 3500 
L 1159 2956 
Q 1341 3275 1631 3429 
Q 1922 3584 2338 3584 
Q 2397 3584 2469 3576 
Q 2541 3569 2628 3553 
L 2631 2963 
z
" transform="scale(0.015625)"/>
      </defs>
      <use xlink:href="#DejaVuSans-43"/>
      <use xlink:href="#DejaVuSans-6c" x="69.824219"/>
      <use xlink:href="#DejaVuSans-75" x="97.607422"/>
      <use xlink:href="#DejaVuSans-73" x="160.986328"/>
      <use xlink:href="#DejaVuSans-74" x="213.085938"/>
      <use xlink:href="#DejaVuSans-65" x="252.294922"/>
      <use xlink:href="#DejaVuSans-72" x="313.818359"/>
     </g>
    </g>
   </g>
   <g id="matplotlib.axis_2">
    <g id="ytick_1">
     <g id="line2d_7">
      <path d="M 53.328125 288.199219 
L 1169.328125 288.199219 
" clip-path="url(#p9a539373c4)" style="fill: none; stroke-dasharray: 0.5,0.825; stroke-dashoffset: 0; stroke: #000000; stroke-width: 0.5"/>
     </g>
     <g id="line2d_8">
      <defs>
       <path id="m06b00b3552" d="M 0 0 
L -3.5 0 
" style="stroke: #000000; stroke-width: 0.8"/>
      </defs>
      <g>
       <use xlink:href="#m06b00b3552" x="53.328125" y="288.199219" style="stroke: #000000; stroke-width: 0.8"/>
      </g>
     </g>
     <g id="text_8">
      <!-- 0 -->
      <g transform="translate(39.965625 291.998438) scale(0.1 -0.1)">
       <use xlink:href="#DejaVuSans-30"/>
      </g>
     </g>
    </g>
    <g id="ytick_2">
     <g id="line2d_9">
      <path d="M 53.328125 241.999219 
L 1169.328125 241.999219 
" clip-path="url(#p9a539373c4)" style="fill: none; stroke-dasharray: 0.5,0.825; stroke-dashoffset: 0; stroke: #000000; stroke-width: 0.5"/>
     </g>
     <g id="line2d_10">
      <g>
       <use xlink:href="#m06b00b3552" x="53.328125" y="241.999219" style="stroke: #000000; stroke-width: 0.8"/>
      </g>
     </g>
     <g id="text_9">
      <!-- 1000 -->
      <g transform="translate(20.878125 245.798438) scale(0.1 -0.1)">
       <use xlink:href="#DejaVuSans-31"/>
       <use xlink:href="#DejaVuSans-30" x="63.623047"/>
       <use xlink:href="#DejaVuSans-30" x="127.246094"/>
       <use xlink:href="#DejaVuSans-30" x="190.869141"/>
      </g>
     </g>
    </g>
    <g id="ytick_3">
     <g id="line2d_11">
      <path d="M 53.328125 195.799219 
L 1169.328125 195.799219 
" clip-path="url(#p9a539373c4)" style="fill: none; stroke-dasharray: 0.5,0.825; stroke-dashoffset: 0; stroke: #000000; stroke-width: 0.5"/>
     </g>
     <g id="line2d_12">
      <g>
       <use xlink:href="#m06b00b3552" x="53.328125" y="195.799219" style="stroke: #000000; stroke-width: 0.8"/>
      </g>
     </g>
     <g id="text_10">
      <!-- 2000 -->
      <g transform="translate(20.878125 199.598438) scale(0.1 -0.1)">
       <use xlink:href="#DejaVuSans-32"/>
       <use xlink:href="#DejaVuSans-30" x="63.623047"/>
       <use xlink:href="#DejaVuSans-30" x="127.246094"/>
       <use xlink:href="#DejaVuSans-30" x="190.869141"/>
      </g>
     </g>
    </g>
    <g id="ytick_4">
     <g id="line2d_13">
      <path d="M 53.328125 149.599219 
L 1169.328125 149.599219 
" clip-path="url(#p9a539373c4)" style="fill: none; stroke-dasharray: 0.5,0.825; stroke-dashoffset: 0; stroke: #000000; stroke-width: 0.5"/>
     </g>
     <g id="line2d_14">
      <g>
       <use xlink:href="#m06b00b3552" x="53.328125" y="149.599219" style="stroke: #000000; stroke-width: 0.8"/>
      </g>
     </g>
     <g id="text_11">
      <!-- 3000 -->
      <g transform="translate(20.878125 153.398438) scale(0.1 -0.1)">
       <use xlink:href="#DejaVuSans-33"/>
       <use xlink:href="#DejaVuSans-30" x="63.623047"/>
       <use xlink:href="#DejaVuSans-30" x="127.246094"/>
       <use xlink:href="#DejaVuSans-30" x="190.869141"/>
      </g>
     </g>
    </g>
    <g id="ytick_5">
     <g id="line2d_15">
      <path d="M 53.328125 103.399219 
L 1169.328125 103.399219 
" clip-path="url(#p9a539373c4)" style="fill: none; stroke-dasharray: 0.5,0.825; stroke-dashoffset: 0; stroke: #000000; stroke-width: 0.5"/>
     </g>
     <g id="line2d_16">
      <g>
       <use xlink:href="#m06b00b3552" x="53.328125" y="103.399219" style="stroke: #000000; stroke-width: 0.8"/>
      </g>
     </g>
     <g id="text_12">
      <!-- 4000 -->
      <g transform="translate(20.878125 107.198438) scale(0.1 -0.1)">
       <use xlink:href="#DejaVuSans-34"/>
       <use xlink:href="#DejaVuSans-30" x="63.623047"/>
       <use xlink:href="#DejaVuSans-30" x="127.246094"/>
       <use xlink:href="#DejaVuSans-30" x="190.869141"/>
      </g>
     </g>
    </g>
    <g id="ytick_6">
     <g id="line2d_17">
      <path d="M 53.328125 57.199219 
L 1169.328125 57.199219 
" clip-path="url(#p9a539373c4)" style="fill: none; stroke-dasharray: 0.5,0.825; stroke-dashoffset: 0; stroke: #000000; stroke-width: 0.5"/>
     </g>
     <g id="line2d_18">
      <g>
       <use xlink:href="#m06b00b3552" x="53.328125" y="57.199219" style="stroke: #000000; stroke-width: 0.8"/>
      </g>
     </g>
     <g id="text_13">
      <!-- 5000 -->
      <g transform="translate(20.878125 60.998438) scale(0.1 -0.1)">
       <use xlink:href="#DejaVuSans-35"/>
       <use xlink:href="#DejaVuSans-30" x="63.623047"/>
       <use xlink:href="#DejaVuSans-30" x="127.246094"/>
       <use xlink:href="#DejaVuSans-30" x="190.869141"/>
      </g>
     </g>
    </g>
    <g id="ytick_7">
     <g id="line2d_19">
      <path d="M 53.328125 10.999219 
L 1169.328125 10.999219 
" clip-path="url(#p9a539373c4)" style="fill: none; stroke-dasharray: 0.5,0.825; stroke-dashoffset: 0; stroke: #000000; stroke-width: 0.5"/>
     </g>
     <g id="line2d_20">
      <g>
       <use xlink:href="#m06b00b3552" x="53.328125" y="10.999219" style="stroke: #000000; stroke-width: 0.8"/>
      </g>
     </g>
     <g id="text_14">
      <!-- 6000 -->
      <g transform="translate(20.878125 14.798438) scale(0.1 -0.1)">
       <defs>
        <path id="DejaVuSans-36" d="M 2113 2584 
Q 1688 2584 1439 2293 
Q 1191 2003 1191 1497 
Q 1191 994 1439 701 
Q 1688 409 2113 409 
Q 2538 409 2786 701 
Q 3034 994 3034 1497 
Q 3034 2003 2786 2293 
Q 2538 2584 2113 2584 
z
M 3366 4563 
L 3366 3988 
Q 3128 4100 2886 4159 
Q 2644 4219 2406 4219 
Q 1781 4219 1451 3797 
Q 1122 3375 1075 2522 
Q 1259 2794 1537 2939 
Q 1816 3084 2150 3084 
Q 2853 3084 3261 2657 
Q 3669 2231 3669 1497 
Q 3669 778 3244 343 
Q 2819 -91 2113 -91 
Q 1303 -91 875 529 
Q 447 1150 447 2328 
Q 447 3434 972 4092 
Q 1497 4750 2381 4750 
Q 2619 4750 2861 4703 
Q 3103 4656 3366 4563 
z
" transform="scale(0.015625)"/>
       </defs>
       <use xlink:href="#DejaVuSans-36"/>
       <use xlink:href="#DejaVuSans-30" x="63.623047"/>
       <use xlink:href="#DejaVuSans-30" x="127.246094"/>
       <use xlink:href="#DejaVuSans-30" x="190.869141"/>
      </g>
     </g>
    </g>
    <g id="text_15">
     <!-- Total of hyperglycemia events -->
     <g transform="translate(14.798437 224.727344) rotate(-90) scale(0.1 -0.1)">
      <defs>
       <path id="DejaVuSans-54" d="M -19 4666 
L 3928 4666 
L 3928 4134 
L 2272 4134 
L 2272 0 
L 1638 0 
L 1638 4134 
L -19 4134 
L -19 4666 
z
" transform="scale(0.015625)"/>
       <path id="DejaVuSans-6f" d="M 1959 3097 
Q 1497 3097 1228 2736 
Q 959 2375 959 1747 
Q 959 1119 1226 758 
Q 1494 397 1959 397 
Q 2419 397 2687 759 
Q 2956 1122 2956 1747 
Q 2956 2369 2687 2733 
Q 2419 3097 1959 3097 
z
M 1959 3584 
Q 2709 3584 3137 3096 
Q 3566 2609 3566 1747 
Q 3566 888 3137 398 
Q 2709 -91 1959 -91 
Q 1206 -91 779 398 
Q 353 888 353 1747 
Q 353 2609 779 3096 
Q 1206 3584 1959 3584 
z
" transform="scale(0.015625)"/>
       <path id="DejaVuSans-61" d="M 2194 1759 
Q 1497 1759 1228 1600 
Q 959 1441 959 1056 
Q 959 750 1161 570 
Q 1363 391 1709 391 
Q 2188 391 2477 730 
Q 2766 1069 2766 1631 
L 2766 1759 
L 2194 1759 
z
M 3341 1997 
L 3341 0 
L 2766 0 
L 2766 531 
Q 2569 213 2275 61 
Q 1981 -91 1556 -91 
Q 1019 -91 701 211 
Q 384 513 384 1019 
Q 384 1609 779 1909 
Q 1175 2209 1959 2209 
L 2766 2209 
L 2766 2266 
Q 2766 2663 2505 2880 
Q 2244 3097 1772 3097 
Q 1472 3097 1187 3025 
Q 903 2953 641 2809 
L 641 3341 
Q 956 3463 1253 3523 
Q 1550 3584 1831 3584 
Q 2591 3584 2966 3190 
Q 3341 2797 3341 1997 
z
" transform="scale(0.015625)"/>
       <path id="DejaVuSans-20" transform="scale(0.015625)"/>
       <path id="DejaVuSans-66" d="M 2375 4863 
L 2375 4384 
L 1825 4384 
Q 1516 4384 1395 4259 
Q 1275 4134 1275 3809 
L 1275 3500 
L 2222 3500 
L 2222 3053 
L 1275 3053 
L 1275 0 
L 697 0 
L 697 3053 
L 147 3053 
L 147 3500 
L 697 3500 
L 697 3744 
Q 697 4328 969 4595 
Q 1241 4863 1831 4863 
L 2375 4863 
z
" transform="scale(0.015625)"/>
       <path id="DejaVuSans-68" d="M 3513 2113 
L 3513 0 
L 2938 0 
L 2938 2094 
Q 2938 2591 2744 2837 
Q 2550 3084 2163 3084 
Q 1697 3084 1428 2787 
Q 1159 2491 1159 1978 
L 1159 0 
L 581 0 
L 581 4863 
L 1159 4863 
L 1159 2956 
Q 1366 3272 1645 3428 
Q 1925 3584 2291 3584 
Q 2894 3584 3203 3211 
Q 3513 2838 3513 2113 
z
" transform="scale(0.015625)"/>
       <path id="DejaVuSans-79" d="M 2059 -325 
Q 1816 -950 1584 -1140 
Q 1353 -1331 966 -1331 
L 506 -1331 
L 506 -850 
L 844 -850 
Q 1081 -850 1212 -737 
Q 1344 -625 1503 -206 
L 1606 56 
L 191 3500 
L 800 3500 
L 1894 763 
L 2988 3500 
L 3597 3500 
L 2059 -325 
z
" transform="scale(0.015625)"/>
       <path id="DejaVuSans-70" d="M 1159 525 
L 1159 -1331 
L 581 -1331 
L 581 3500 
L 1159 3500 
L 1159 2969 
Q 1341 3281 1617 3432 
Q 1894 3584 2278 3584 
Q 2916 3584 3314 3078 
Q 3713 2572 3713 1747 
Q 3713 922 3314 415 
Q 2916 -91 2278 -91 
Q 1894 -91 1617 61 
Q 1341 213 1159 525 
z
M 3116 1747 
Q 3116 2381 2855 2742 
Q 2594 3103 2138 3103 
Q 1681 3103 1420 2742 
Q 1159 2381 1159 1747 
Q 1159 1113 1420 752 
Q 1681 391 2138 391 
Q 2594 391 2855 752 
Q 3116 1113 3116 1747 
z
" transform="scale(0.015625)"/>
       <path id="DejaVuSans-67" d="M 2906 1791 
Q 2906 2416 2648 2759 
Q 2391 3103 1925 3103 
Q 1463 3103 1205 2759 
Q 947 2416 947 1791 
Q 947 1169 1205 825 
Q 1463 481 1925 481 
Q 2391 481 2648 825 
Q 2906 1169 2906 1791 
z
M 3481 434 
Q 3481 -459 3084 -895 
Q 2688 -1331 1869 -1331 
Q 1566 -1331 1297 -1286 
Q 1028 -1241 775 -1147 
L 775 -588 
Q 1028 -725 1275 -790 
Q 1522 -856 1778 -856 
Q 2344 -856 2625 -561 
Q 2906 -266 2906 331 
L 2906 616 
Q 2728 306 2450 153 
Q 2172 0 1784 0 
Q 1141 0 747 490 
Q 353 981 353 1791 
Q 353 2603 747 3093 
Q 1141 3584 1784 3584 
Q 2172 3584 2450 3431 
Q 2728 3278 2906 2969 
L 2906 3500 
L 3481 3500 
L 3481 434 
z
" transform="scale(0.015625)"/>
       <path id="DejaVuSans-63" d="M 3122 3366 
L 3122 2828 
Q 2878 2963 2633 3030 
Q 2388 3097 2138 3097 
Q 1578 3097 1268 2742 
Q 959 2388 959 1747 
Q 959 1106 1268 751 
Q 1578 397 2138 397 
Q 2388 397 2633 464 
Q 2878 531 3122 666 
L 3122 134 
Q 2881 22 2623 -34 
Q 2366 -91 2075 -91 
Q 1284 -91 818 406 
Q 353 903 353 1747 
Q 353 2603 823 3093 
Q 1294 3584 2113 3584 
Q 2378 3584 2631 3529 
Q 2884 3475 3122 3366 
z
" transform="scale(0.015625)"/>
       <path id="DejaVuSans-6d" d="M 3328 2828 
Q 3544 3216 3844 3400 
Q 4144 3584 4550 3584 
Q 5097 3584 5394 3201 
Q 5691 2819 5691 2113 
L 5691 0 
L 5113 0 
L 5113 2094 
Q 5113 2597 4934 2840 
Q 4756 3084 4391 3084 
Q 3944 3084 3684 2787 
Q 3425 2491 3425 1978 
L 3425 0 
L 2847 0 
L 2847 2094 
Q 2847 2600 2669 2842 
Q 2491 3084 2119 3084 
Q 1678 3084 1418 2786 
Q 1159 2488 1159 1978 
L 1159 0 
L 581 0 
L 581 3500 
L 1159 3500 
L 1159 2956 
Q 1356 3278 1631 3431 
Q 1906 3584 2284 3584 
Q 2666 3584 2933 3390 
Q 3200 3197 3328 2828 
z
" transform="scale(0.015625)"/>
       <path id="DejaVuSans-69" d="M 603 3500 
L 1178 3500 
L 1178 0 
L 603 0 
L 603 3500 
z
M 603 4863 
L 1178 4863 
L 1178 4134 
L 603 4134 
L 603 4863 
z
" transform="scale(0.015625)"/>
       <path id="DejaVuSans-76" d="M 191 3500 
L 800 3500 
L 1894 563 
L 2988 3500 
L 3597 3500 
L 2284 0 
L 1503 0 
L 191 3500 
z
" transform="scale(0.015625)"/>
       <path id="DejaVuSans-6e" d="M 3513 2113 
L 3513 0 
L 2938 0 
L 2938 2094 
Q 2938 2591 2744 2837 
Q 2550 3084 2163 3084 
Q 1697 3084 1428 2787 
Q 1159 2491 1159 1978 
L 1159 0 
L 581 0 
L 581 3500 
L 1159 3500 
L 1159 2956 
Q 1366 3272 1645 3428 
Q 1925 3584 2291 3584 
Q 2894 3584 3203 3211 
Q 3513 2838 3513 2113 
z
" transform="scale(0.015625)"/>
      </defs>
      <use xlink:href="#DejaVuSans-54"/>
      <use xlink:href="#DejaVuSans-6f" x="44.083984"/>
      <use xlink:href="#DejaVuSans-74" x="105.265625"/>
      <use xlink:href="#DejaVuSans-61" x="144.474609"/>
      <use xlink:href="#DejaVuSans-6c" x="205.753906"/>
      <use xlink:href="#DejaVuSans-20" x="233.537109"/>
      <use xlink:href="#DejaVuSans-6f" x="265.324219"/>
      <use xlink:href="#DejaVuSans-66" x="326.505859"/>
      <use xlink:href="#DejaVuSans-20" x="361.710938"/>
      <use xlink:href="#DejaVuSans-68" x="393.498047"/>
      <use xlink:href="#DejaVuSans-79" x="456.876953"/>
      <use xlink:href="#DejaVuSans-70" x="516.056641"/>
      <use xlink:href="#DejaVuSans-65" x="579.533203"/>
      <use xlink:href="#DejaVuSans-72" x="641.056641"/>
      <use xlink:href="#DejaVuSans-67" x="680.419922"/>
      <use xlink:href="#DejaVuSans-6c" x="743.896484"/>
      <use xlink:href="#DejaVuSans-79" x="771.679688"/>
      <use xlink:href="#DejaVuSans-63" x="830.859375"/>
      <use xlink:href="#DejaVuSans-65" x="885.839844"/>
      <use xlink:href="#DejaVuSans-6d" x="947.363281"/>
      <use xlink:href="#DejaVuSans-69" x="1044.775391"/>
      <use xlink:href="#DejaVuSans-61" x="1072.558594"/>
      <use xlink:href="#DejaVuSans-20" x="1133.837891"/>
      <use xlink:href="#DejaVuSans-65" x="1165.625"/>
      <use xlink:href="#DejaVuSans-76" x="1227.148438"/>
      <use xlink:href="#DejaVuSans-65" x="1286.328125"/>
      <use xlink:href="#DejaVuSans-6e" x="1347.851562"/>
      <use xlink:href="#DejaVuSans-74" x="1411.230469"/>
      <use xlink:href="#DejaVuSans-73" x="1450.439453"/>
     </g>
    </g>
   </g>
   <g id="patch_33">
    <path d="M 53.328125 288.199219 
L 53.328125 10.999219 
" style="fill: none; stroke: #000000; stroke-width: 0.8; stroke-linejoin: miter; stroke-linecap: square"/>
   </g>
   <g id="patch_34">
    <path d="M 1169.328125 288.199219 
L 1169.328125 10.999219 
" style="fill: none; stroke: #000000; stroke-width: 0.8; stroke-linejoin: miter; stroke-linecap: square"/>
   </g>
   <g id="patch_35">
    <path d="M 53.328125 288.199219 
L 1169.328125 288.199219 
" style="fill: none; stroke: #000000; stroke-width: 0.8; stroke-linejoin: miter; stroke-linecap: square"/>
   </g>
   <g id="patch_36">
    <path d="M 53.328125 10.999219 
L 1169.328125 10.999219 
" style="fill: none; stroke: #000000; stroke-width: 0.8; stroke-linejoin: miter; stroke-linecap: square"/>
   </g>
   <g id="legend_1">
    <g id="patch_37">
     <path d="M 996.25625 92.389844 
L 1162.328125 92.389844 
Q 1164.328125 92.389844 1164.328125 90.389844 
L 1164.328125 17.999219 
Q 1164.328125 15.999219 1162.328125 15.999219 
L 996.25625 15.999219 
Q 994.25625 15.999219 994.25625 17.999219 
L 994.25625 90.389844 
Q 994.25625 92.389844 996.25625 92.389844 
z
" style="fill: #ffffff; opacity: 0.8; stroke: #cccccc; stroke-linejoin: miter"/>
    </g>
    <g id="patch_38">
     <path d="M 998.25625 27.597656 
L 1018.25625 27.597656 
L 1018.25625 20.597656 
L 998.25625 20.597656 
z
" style="fill: #1f77b4"/>
    </g>
    <g id="text_16">
     <!-- 0000 - 0600 Early morning -->
     <g transform="translate(1026.25625 27.597656) scale(0.1 -0.1)">
      <defs>
       <path id="DejaVuSans-2d" d="M 313 2009 
L 1997 2009 
L 1997 1497 
L 313 1497 
L 313 2009 
z
" transform="scale(0.015625)"/>
       <path id="DejaVuSans-45" d="M 628 4666 
L 3578 4666 
L 3578 4134 
L 1259 4134 
L 1259 2753 
L 3481 2753 
L 3481 2222 
L 1259 2222 
L 1259 531 
L 3634 531 
L 3634 0 
L 628 0 
L 628 4666 
z
" transform="scale(0.015625)"/>
      </defs>
      <use xlink:href="#DejaVuSans-30"/>
      <use xlink:href="#DejaVuSans-30" x="63.623047"/>
      <use xlink:href="#DejaVuSans-30" x="127.246094"/>
      <use xlink:href="#DejaVuSans-30" x="190.869141"/>
      <use xlink:href="#DejaVuSans-20" x="254.492188"/>
      <use xlink:href="#DejaVuSans-2d" x="286.279297"/>
      <use xlink:href="#DejaVuSans-20" x="322.363281"/>
      <use xlink:href="#DejaVuSans-30" x="354.150391"/>
      <use xlink:href="#DejaVuSans-36" x="417.773438"/>
      <use xlink:href="#DejaVuSans-30" x="481.396484"/>
      <use xlink:href="#DejaVuSans-30" x="545.019531"/>
      <use xlink:href="#DejaVuSans-20" x="608.642578"/>
      <use xlink:href="#DejaVuSans-45" x="640.429688"/>
      <use xlink:href="#DejaVuSans-61" x="703.613281"/>
      <use xlink:href="#DejaVuSans-72" x="764.892578"/>
      <use xlink:href="#DejaVuSans-6c" x="806.005859"/>
      <use xlink:href="#DejaVuSans-79" x="833.789062"/>
      <use xlink:href="#DejaVuSans-20" x="892.96875"/>
      <use xlink:href="#DejaVuSans-6d" x="924.755859"/>
      <use xlink:href="#DejaVuSans-6f" x="1022.167969"/>
      <use xlink:href="#DejaVuSans-72" x="1083.349609"/>
      <use xlink:href="#DejaVuSans-6e" x="1122.712891"/>
      <use xlink:href="#DejaVuSans-69" x="1186.091797"/>
      <use xlink:href="#DejaVuSans-6e" x="1213.875"/>
      <use xlink:href="#DejaVuSans-67" x="1277.253906"/>
     </g>
    </g>
    <g id="patch_39">
     <path d="M 998.25625 42.275781 
L 1018.25625 42.275781 
L 1018.25625 35.275781 
L 998.25625 35.275781 
z
" style="fill: #ff7f0e"/>
    </g>
    <g id="text_17">
     <!-- 0600 - 1300 Morning -->
     <g transform="translate(1026.25625 42.275781) scale(0.1 -0.1)">
      <defs>
       <path id="DejaVuSans-4d" d="M 628 4666 
L 1569 4666 
L 2759 1491 
L 3956 4666 
L 4897 4666 
L 4897 0 
L 4281 0 
L 4281 4097 
L 3078 897 
L 2444 897 
L 1241 4097 
L 1241 0 
L 628 0 
L 628 4666 
z
" transform="scale(0.015625)"/>
      </defs>
      <use xlink:href="#DejaVuSans-30"/>
      <use xlink:href="#DejaVuSans-36" x="63.623047"/>
      <use xlink:href="#DejaVuSans-30" x="127.246094"/>
      <use xlink:href="#DejaVuSans-30" x="190.869141"/>
      <use xlink:href="#DejaVuSans-20" x="254.492188"/>
      <use xlink:href="#DejaVuSans-2d" x="286.279297"/>
      <use xlink:href="#DejaVuSans-20" x="322.363281"/>
      <use xlink:href="#DejaVuSans-31" x="354.150391"/>
      <use xlink:href="#DejaVuSans-33" x="417.773438"/>
      <use xlink:href="#DejaVuSans-30" x="481.396484"/>
      <use xlink:href="#DejaVuSans-30" x="545.019531"/>
      <use xlink:href="#DejaVuSans-20" x="608.642578"/>
      <use xlink:href="#DejaVuSans-4d" x="640.429688"/>
      <use xlink:href="#DejaVuSans-6f" x="726.708984"/>
      <use xlink:href="#DejaVuSans-72" x="787.890625"/>
      <use xlink:href="#DejaVuSans-6e" x="827.253906"/>
      <use xlink:href="#DejaVuSans-69" x="890.632812"/>
      <use xlink:href="#DejaVuSans-6e" x="918.416016"/>
      <use xlink:href="#DejaVuSans-67" x="981.794922"/>
     </g>
    </g>
    <g id="patch_40">
     <path d="M 998.25625 56.953906 
L 1018.25625 56.953906 
L 1018.25625 49.953906 
L 998.25625 49.953906 
z
" style="fill: #2ca02c"/>
    </g>
    <g id="text_18">
     <!-- 1300 - 1600 Noon -->
     <g transform="translate(1026.25625 56.953906) scale(0.1 -0.1)">
      <defs>
       <path id="DejaVuSans-4e" d="M 628 4666 
L 1478 4666 
L 3547 763 
L 3547 4666 
L 4159 4666 
L 4159 0 
L 3309 0 
L 1241 3903 
L 1241 0 
L 628 0 
L 628 4666 
z
" transform="scale(0.015625)"/>
      </defs>
      <use xlink:href="#DejaVuSans-31"/>
      <use xlink:href="#DejaVuSans-33" x="63.623047"/>
      <use xlink:href="#DejaVuSans-30" x="127.246094"/>
      <use xlink:href="#DejaVuSans-30" x="190.869141"/>
      <use xlink:href="#DejaVuSans-20" x="254.492188"/>
      <use xlink:href="#DejaVuSans-2d" x="286.279297"/>
      <use xlink:href="#DejaVuSans-20" x="322.363281"/>
      <use xlink:href="#DejaVuSans-31" x="354.150391"/>
      <use xlink:href="#DejaVuSans-36" x="417.773438"/>
      <use xlink:href="#DejaVuSans-30" x="481.396484"/>
      <use xlink:href="#DejaVuSans-30" x="545.019531"/>
      <use xlink:href="#DejaVuSans-20" x="608.642578"/>
      <use xlink:href="#DejaVuSans-4e" x="640.429688"/>
      <use xlink:href="#DejaVuSans-6f" x="715.234375"/>
      <use xlink:href="#DejaVuSans-6f" x="776.416016"/>
      <use xlink:href="#DejaVuSans-6e" x="837.597656"/>
     </g>
    </g>
    <g id="patch_41">
     <path d="M 998.25625 71.632031 
L 1018.25625 71.632031 
L 1018.25625 64.632031 
L 998.25625 64.632031 
z
" style="fill: #d62728"/>
    </g>
    <g id="text_19">
     <!-- 1600 - 2000 Afternoon -->
     <g transform="translate(1026.25625 71.632031) scale(0.1 -0.1)">
      <defs>
       <path id="DejaVuSans-41" d="M 2188 4044 
L 1331 1722 
L 3047 1722 
L 2188 4044 
z
M 1831 4666 
L 2547 4666 
L 4325 0 
L 3669 0 
L 3244 1197 
L 1141 1197 
L 716 0 
L 50 0 
L 1831 4666 
z
" transform="scale(0.015625)"/>
      </defs>
      <use xlink:href="#DejaVuSans-31"/>
      <use xlink:href="#DejaVuSans-36" x="63.623047"/>
      <use xlink:href="#DejaVuSans-30" x="127.246094"/>
      <use xlink:href="#DejaVuSans-30" x="190.869141"/>
      <use xlink:href="#DejaVuSans-20" x="254.492188"/>
      <use xlink:href="#DejaVuSans-2d" x="286.279297"/>
      <use xlink:href="#DejaVuSans-20" x="322.363281"/>
      <use xlink:href="#DejaVuSans-32" x="354.150391"/>
      <use xlink:href="#DejaVuSans-30" x="417.773438"/>
      <use xlink:href="#DejaVuSans-30" x="481.396484"/>
      <use xlink:href="#DejaVuSans-30" x="545.019531"/>
      <use xlink:href="#DejaVuSans-20" x="608.642578"/>
      <use xlink:href="#DejaVuSans-41" x="640.429688"/>
      <use xlink:href="#DejaVuSans-66" x="705.212891"/>
      <use xlink:href="#DejaVuSans-74" x="738.667969"/>
      <use xlink:href="#DejaVuSans-65" x="777.876953"/>
      <use xlink:href="#DejaVuSans-72" x="839.400391"/>
      <use xlink:href="#DejaVuSans-6e" x="878.763672"/>
      <use xlink:href="#DejaVuSans-6f" x="942.142578"/>
      <use xlink:href="#DejaVuSans-6f" x="1003.324219"/>
      <use xlink:href="#DejaVuSans-6e" x="1064.505859"/>
     </g>
    </g>
    <g id="patch_42">
     <path d="M 998.25625 86.310156 
L 1018.25625 86.310156 
L 1018.25625 79.310156 
L 998.25625 79.310156 
z
" style="fill: #9467bd"/>
    </g>
    <g id="text_20">
     <!-- 2000 - 2400 Night -->
     <g transform="translate(1026.25625 86.310156) scale(0.1 -0.1)">
      <use xlink:href="#DejaVuSans-32"/>
      <use xlink:href="#DejaVuSans-30" x="63.623047"/>
      <use xlink:href="#DejaVuSans-30" x="127.246094"/>
      <use xlink:href="#DejaVuSans-30" x="190.869141"/>
      <use xlink:href="#DejaVuSans-20" x="254.492188"/>
      <use xlink:href="#DejaVuSans-2d" x="286.279297"/>
      <use xlink:href="#DejaVuSans-20" x="322.363281"/>
      <use xlink:href="#DejaVuSans-32" x="354.150391"/>
      <use xlink:href="#DejaVuSans-34" x="417.773438"/>
      <use xlink:href="#DejaVuSans-30" x="481.396484"/>
      <use xlink:href="#DejaVuSans-30" x="545.019531"/>
      <use xlink:href="#DejaVuSans-20" x="608.642578"/>
      <use xlink:href="#DejaVuSans-4e" x="640.429688"/>
      <use xlink:href="#DejaVuSans-69" x="715.234375"/>
      <use xlink:href="#DejaVuSans-67" x="743.017578"/>
      <use xlink:href="#DejaVuSans-68" x="806.494141"/>
      <use xlink:href="#DejaVuSans-74" x="869.873047"/>
     </g>
    </g>
   </g>
  </g>
 </g>
 <defs>
  <clipPath id="p9a539373c4">
   <rect x="53.328125" y="10.999219" width="1116" height="277.2"/>
  </clipPath>
 </defs>
</svg>
